<svg width="30" height="31" viewBox="0 0 30 31" fill="none" xmlns="http://www.w3.org/2000/svg">
<path d="M15.6277 11.4902C14.9889 10.9951 14.1983 10.7595 13.4375 10.7595C12.3069 10.7595 11.1104 11.2798 10.4444 12.3989C10.1933 12.8208 9.53895 13.4487 8.76779 14.0564C8.00367 14.6585 7.31806 15.0917 7.12014 15.1794C6.86308 15.2933 6.67073 15.5166 6.59612 15.7877C6.5215 16.0588 6.5725 16.3491 6.73506 16.5785C7.34754 17.4429 8.62443 18.6246 10.1675 19.5883C11.7122 20.5529 13.6589 21.3845 15.625 21.3845C20.1358 21.3845 23.2948 18.1456 24.4895 16.6128C24.6669 16.3851 24.7296 16.0884 24.6593 15.8084C24.5891 15.5284 24.3938 15.2964 24.1299 15.1794C23.9454 15.0977 23.5347 14.838 22.9632 14.3359C22.4081 13.8482 21.7429 13.1684 21.0455 12.2939C20.2284 11.2693 19.0118 10.7653 17.8516 10.7653C17.0709 10.7653 16.2714 10.9968 15.6277 11.4902ZM12.0556 13.3578C12.3271 12.9017 12.8494 12.6345 13.4375 12.6345C14.0256 12.6345 14.5479 12.9018 14.8194 13.3579C14.9883 13.6416 15.2939 13.8155 15.624 13.8159C15.9541 13.8162 16.2601 13.6429 16.4296 13.3596C16.6966 12.9132 17.2143 12.6403 17.8516 12.6403C18.4882 12.6403 19.1466 12.92 19.5795 13.4629C20.3422 14.4192 21.0832 15.18 21.7256 15.7444C21.9356 15.9289 22.1402 16.097 22.336 16.2463C20.9989 17.6727 18.6387 19.5095 15.625 19.5095C14.1536 19.5095 12.5587 18.871 11.1607 17.9979C10.2507 17.4296 9.48142 16.7982 8.93656 16.2595C9.25377 16.0421 9.59649 15.7905 9.92827 15.5291C10.7016 14.9197 11.6098 14.107 12.0556 13.3578Z" fill="#C19476"/>
<path d="M6.58073 15.8889C6.68184 15.3811 7.17545 15.0515 7.68325 15.1526C9.95381 15.6046 16.4092 16.2593 23.6068 15.1455C24.1185 15.0664 24.5975 15.417 24.6767 15.9286C24.7558 16.4403 23.8935 16.9985 23.8935 16.9985C16.4609 18.1486 9.78392 17.4826 7.31711 16.9915C6.80931 16.8904 6.47962 16.3967 6.58073 15.8889Z" fill="#C19476"/>
<path d="M15 3.88452C8.6142 3.88452 3.4375 9.06123 3.4375 15.447C3.4375 21.8328 8.6142 27.0095 15 27.0095C21.3858 27.0095 26.5625 21.8328 26.5625 15.447C26.5625 14.9293 26.9822 14.5095 27.5 14.5095C28.0178 14.5095 28.4375 14.9293 28.4375 15.447C28.4375 22.8684 22.4213 28.8845 15 28.8845C7.57867 28.8845 1.5625 22.8684 1.5625 15.447C1.5625 8.02569 7.57867 2.00952 15 2.00952C15.5178 2.00952 15.9375 2.42925 15.9375 2.94702C15.9375 3.46479 15.5178 3.88452 15 3.88452Z" fill="#C19476"/>
<path d="M24.3748 2.70811L25.2703 5.46445H28.1686L25.8238 7.16783L26.7195 9.9241L24.3748 8.2206L22.0301 9.9241L22.9258 7.16783L20.5811 5.46445H23.4793L24.3748 2.70811Z" fill="#C19476"/>
<path d="M21.2005 13.9562C21.5601 13.5837 22.1536 13.5731 22.5262 13.9327C23.3067 14.6859 23.8884 15.0724 24.1299 15.1794C24.3938 15.2964 24.5891 15.5284 24.6593 15.8084C24.7296 16.0884 24.6669 16.3851 24.4895 16.6128C23.9203 17.3431 22.9542 18.4008 21.6467 19.3348C21.2254 19.6358 20.6399 19.5383 20.3389 19.117C20.0379 18.6957 20.1355 18.1101 20.5568 17.8092C21.2707 17.2992 21.8695 16.7437 22.336 16.2463C21.9911 15.9834 21.6148 15.6589 21.2241 15.2818C20.8515 14.9223 20.841 14.3288 21.2005 13.9562Z" fill="#C19476"/>
<path d="M10.7613 13.5735C11.1056 13.9602 11.0713 14.5528 10.6846 14.8972C10.1707 15.3548 9.60394 15.7912 9.11242 16.1372C9.05359 16.1786 8.99489 16.2195 8.93656 16.2595C9.59083 16.9063 10.565 17.6831 11.7072 18.3211C12.1592 18.5737 12.321 19.1448 12.0685 19.5968C11.8159 20.0488 11.2448 20.2106 10.7928 19.958C8.95931 18.9338 7.4225 17.5487 6.73506 16.5785C6.5725 16.3491 6.5215 16.0588 6.59612 15.7877C6.67073 15.5166 6.86308 15.2933 7.12014 15.1794C7.2333 15.1293 7.5669 14.9322 8.03307 14.604C8.47851 14.2905 8.98722 13.898 9.43765 13.4969C9.82432 13.1526 10.4169 13.1869 10.7613 13.5735Z" fill="#C19476"/>
</svg>
