<svg width="31" height="31" viewBox="0 0 31 31" fill="none" xmlns="http://www.w3.org/2000/svg">
<path d="M19.3962 21.1906L19.1849 22.2466C19.6612 22.3419 20.1423 22.1066 20.3594 21.6722L19.3962 21.1906ZM9.34488 11.1393L8.86327 10.1761C8.42889 10.3933 8.19364 10.8743 8.28886 11.3505L9.34488 11.1393ZM21.191 14.0111C21.191 14.6059 21.6732 15.088 22.268 15.088C22.8627 15.088 23.3449 14.6059 23.3449 14.0111H21.191ZM16.5244 7.19061C15.9296 7.19061 15.4474 7.67277 15.4474 8.26753C15.4474 8.8623 15.9296 9.34446 16.5244 9.34446V7.19061ZM26.9346 14.0111C26.9346 14.6059 27.4168 15.088 28.0115 15.088C28.6063 15.088 29.0885 14.6059 29.0885 14.0111H26.9346ZM16.5244 1.44702C15.9296 1.44702 15.4474 1.92918 15.4474 2.52394C15.4474 3.11871 15.9296 3.60087 16.5244 3.60087V1.44702ZM26.9346 23.135V25.4983H29.0885V23.135H26.9346ZM5.03719 3.60087H7.40058V1.44702H5.03719V3.60087ZM19.3962 21.1906C19.6074 20.1347 19.6077 20.1347 19.608 20.1347C19.6047 20.1339 19.5972 20.1325 19.5873 20.1302C19.5675 20.1259 19.535 20.1184 19.4908 20.1078C19.4025 20.0863 19.2675 20.0514 19.0943 20.0004C18.7474 19.8983 18.2497 19.7327 17.6665 19.4828C16.4951 18.9808 15.0079 18.1512 13.6961 16.8394L12.1731 18.3623C13.7331 19.9223 15.4767 20.8876 16.8182 21.4626C17.4913 21.751 18.0705 21.9445 18.4865 22.0667C18.6947 22.128 18.8627 22.1716 18.9818 22.2006C19.0414 22.2151 19.0887 22.2259 19.1229 22.2335C19.1401 22.2372 19.1539 22.2401 19.1643 22.2424C19.1694 22.2434 19.1737 22.2444 19.1772 22.245C19.1789 22.2454 19.1805 22.2457 19.1818 22.246C19.1824 22.2461 19.1829 22.2463 19.1835 22.2463C19.1838 22.2464 19.1848 22.2466 19.1849 22.2466C19.1854 22.2467 19.1849 22.2466 19.3962 21.1906ZM13.6961 16.8394C12.3842 15.5276 11.5547 14.0404 11.0527 12.869C10.8027 12.2857 10.6371 11.7881 10.5351 11.4412C10.4842 11.268 10.4493 11.1331 10.4277 11.0446C10.417 11.0005 10.4096 10.968 10.4052 10.9482C10.4031 10.9383 10.4016 10.9316 10.4009 10.9282C10.4006 10.9265 10.4004 10.9256 10.4004 10.9256C10.4003 10.9252 10.4004 10.9256 10.4004 10.9256C10.4004 10.9256 10.4006 10.9265 10.4009 10.9282C10.4009 10.9281 10.401 10.9284 10.4009 10.9282C10.401 10.9285 10.4009 10.9281 9.34488 11.1393C8.28886 11.3505 8.28879 11.3502 8.28886 11.3505C8.28889 11.3507 8.28911 11.3517 8.28917 11.352C8.28927 11.3525 8.28938 11.3531 8.28951 11.3537C8.28978 11.355 8.29008 11.3565 8.29044 11.3583C8.29115 11.3617 8.29204 11.366 8.29313 11.3712C8.29531 11.3816 8.29827 11.3954 8.30205 11.4125C8.3096 11.4467 8.32044 11.4941 8.33493 11.5537C8.3639 11.6728 8.40754 11.8408 8.46877 12.049C8.59109 12.4649 8.78449 13.0442 9.07298 13.7173C9.64784 15.0588 10.6131 16.8024 12.1731 18.3623L13.6961 16.8394ZM9.8265 12.1026L10.3348 11.8484L9.3716 9.92193L8.86327 10.1761L9.8265 12.1026ZM12.2352 6.85003L11.0669 3.92923L9.06708 4.72914L10.2354 7.64995L12.2352 6.85003ZM26.6062 19.4687L23.6855 18.3003L22.8855 20.3001L25.8063 21.4685L26.6062 19.4687ZM18.6871 20.2007L18.433 20.709L20.3594 21.6722L20.6135 21.1639L18.6871 20.2007ZM23.6855 18.3003C21.7786 17.5375 19.6055 18.3638 18.6871 20.2007L20.6135 21.1639C21.0311 20.3289 22.0188 19.9534 22.8855 20.3001L23.6855 18.3003ZM10.3348 11.8484C12.1717 10.93 12.9979 8.75683 12.2352 6.85003L10.2354 7.64995C10.5821 8.51668 10.2065 9.50446 9.3716 9.92193L10.3348 11.8484ZM7.40058 3.60087C8.1345 3.60087 8.7945 4.0477 9.06708 4.72914L11.0669 3.92923C10.4672 2.43007 9.01523 1.44702 7.40058 1.44702V3.60087ZM29.0885 23.135C29.0885 21.5203 28.1055 20.0683 26.6062 19.4687L25.8063 21.4685C26.4878 21.741 26.9346 22.4009 26.9346 23.135H29.0885ZM25.1398 27.2932C13.0462 27.2932 3.24232 17.4893 3.24232 5.39574H1.08847C1.08847 18.6789 11.8566 29.447 25.1398 29.447V27.2932ZM25.1398 29.447C27.3206 29.447 29.0885 27.6791 29.0885 25.4983H26.9346C26.9346 26.4896 26.1311 27.2932 25.1398 27.2932V29.447ZM3.24232 5.39574C3.24232 4.40445 4.0459 3.60087 5.03719 3.60087V1.44702C2.85638 1.44702 1.08847 3.21493 1.08847 5.39574H3.24232ZM23.3449 14.0111C23.3449 13.1154 23.1684 12.2285 22.8257 11.401L20.8358 12.2253C21.0703 12.7915 21.191 13.3983 21.191 14.0111H23.3449ZM22.8257 11.401C22.4829 10.5735 21.9805 9.82164 21.3473 9.18829L19.8242 10.7113C20.2576 11.1446 20.6013 11.6591 20.8358 12.2253L22.8257 11.401ZM21.3473 9.18829C20.7139 8.55494 19.9619 8.05255 19.1344 7.70979L18.3102 9.69968C18.8764 9.93421 19.3909 10.2779 19.8242 10.7113L21.3473 9.18829ZM19.1344 7.70979C18.307 7.36703 17.4201 7.19061 16.5244 7.19061V9.34446C17.1372 9.34446 17.744 9.46516 18.3102 9.69968L19.1344 7.70979ZM29.0885 14.0111C29.0885 12.3612 28.7635 10.7274 28.132 9.20305L26.1422 10.0273C26.6654 11.2903 26.9346 12.644 26.9346 14.0111H29.0885ZM28.132 9.20305C27.5007 7.6787 26.5752 6.29365 25.4086 5.12697L23.8855 6.64997C24.8521 7.61664 25.6191 8.76425 26.1422 10.0273L28.132 9.20305ZM25.4086 5.12697C24.2419 3.96027 22.8568 3.03481 21.3325 2.4034L20.5083 4.3933C21.7713 4.91647 22.9188 5.68328 23.8855 6.64997L25.4086 5.12697ZM21.3325 2.4034C19.8081 1.77201 18.1744 1.44702 16.5244 1.44702V3.60087C17.8915 3.60087 19.2451 3.87014 20.5083 4.3933L21.3325 2.4034Z" fill="#C19476"/>
</svg>
