<svg width="24" height="24" viewBox="0 0 24 24" fill="none" xmlns="http://www.w3.org/2000/svg">
<path fill-rule="evenodd" clip-rule="evenodd" d="M1.25 12C1.25 6.06294 6.06294 1.25 12 1.25C17.9371 1.25 22.75 6.06294 22.75 12C22.75 17.9371 17.9371 22.75 12 22.75C6.06294 22.75 1.25 17.9371 1.25 12ZM12 2.75C6.89136 2.75 2.75 6.89136 2.75 12C2.75 17.1086 6.89136 21.25 12 21.25C17.1086 21.25 21.25 17.1086 21.25 12C21.25 6.89136 17.1086 2.75 12 2.75Z" fill="#C19476"/>
<path fill-rule="evenodd" clip-rule="evenodd" d="M12.0041 5.25C12.4183 5.25004 12.7541 5.58586 12.754 6.00007L12.7534 11.6938L16.7734 15.7138C17.0663 16.0067 17.0663 16.4815 16.7734 16.7744C16.4806 17.0673 16.0057 17.0673 15.7128 16.7744L11.4731 12.5347C11.3324 12.3941 11.2534 12.2033 11.2534 12.0043L11.254 5.99993C11.2541 5.58571 11.5899 5.24996 12.0041 5.25Z" fill="#C19476"/>
</svg>
