<svg width="30" height="31" viewBox="0 0 30 31" fill="none" xmlns="http://www.w3.org/2000/svg">
<path fill-rule="evenodd" clip-rule="evenodd" d="M24.5138 7.66392C23.285 6.19949 21.1017 6.0085 19.6373 7.23728L12.4837 13.2398L7.99902 17.003L7.72455 20.1411C7.70383 20.378 7.58986 20.5969 7.40772 20.7497L5.02329 22.7505C4.6124 23.0953 4.55876 23.7079 4.90357 24.1189C5.24916 24.5307 5.8632 24.5845 6.27507 24.2389L8.65778 22.2395C8.83982 22.0867 9.07506 22.0125 9.3118 22.0331L12.4487 22.3063L24.0871 12.5405C25.5516 11.3116 25.7426 9.12837 24.5138 7.66392ZM18.4848 5.86381C20.7078 3.9985 24.022 4.28847 25.8873 6.51144C27.7525 8.73442 27.4627 12.0486 25.2396 13.9139L23.3321 15.5146L13.3169 23.9183C13.1349 24.071 12.8997 24.1453 12.6629 24.1247L9.52599 23.8515L7.42757 25.6123C6.25714 26.5945 4.51219 26.4418 3.5301 25.2714C2.54882 24.1019 2.70131 22.3583 3.87081 21.377L5.97077 19.6149L6.24525 16.4768C6.26597 16.2399 6.37993 16.021 6.56207 15.8682L16.5772 7.46449L18.4848 5.86381Z" fill="#C19476"/>
<path fill-rule="evenodd" clip-rule="evenodd" d="M14.0228 6.35711C14.4021 6.03886 14.9675 6.08833 15.2858 6.4676L24.1137 16.9882C24.4319 17.3675 24.3824 17.933 24.0032 18.2512C23.6239 18.5695 23.0584 18.52 22.7402 18.1407L13.9123 7.62009C13.594 7.24082 13.6435 6.67536 14.0228 6.35711Z" fill="#C19476"/>
<path fill-rule="evenodd" clip-rule="evenodd" d="M15.7914 14.9901C16.117 15.3631 16.0787 15.9294 15.7057 16.255L12.2834 19.2433C11.9105 19.5689 11.3442 19.5306 11.0185 19.1576C10.6929 18.7847 10.7312 18.2184 11.1042 17.8927L14.5265 14.9045C14.8994 14.5788 15.4658 14.6172 15.7914 14.9901Z" fill="#C19476"/>
</svg>
