<svg width="70" height="71" viewBox="0 0 70 71" fill="none" xmlns="http://www.w3.org/2000/svg">
<path d="M60.8774 45.3389C60.4729 45.3388 60.073 45.425 59.7046 45.592C59.3361 45.759 59.0076 46.0028 58.7411 46.307L56.9698 48.331L56.1625 43.4856H57.6548C60.9955 43.4856 63.7144 40.7676 63.7144 37.4261C63.7142 37.0927 63.6868 36.7598 63.6323 36.4309L59.8667 13.845H55.379V11.9925C55.3775 10.5189 54.7914 9.1061 53.7493 8.06418C52.7072 7.02226 51.2943 6.43635 49.8207 6.43504C48.3471 6.43635 46.9342 7.02226 45.8922 8.06418C44.8501 9.1061 44.264 10.5189 44.2624 11.9925V13.845H39.7732L37.6122 26.8141H33.2886L29.7141 48.2653C29.5385 48.3794 29.3572 48.4819 29.194 48.6124L27.9338 49.6215C27.147 48.1817 25.6366 47.1914 23.8851 47.1914C22.5174 47.1914 20.6986 47.8371 19.701 49.0439H6.28561V62.0121H19.701C20.6986 63.219 22.5174 63.8646 23.8851 63.8646C25.868 63.8646 27.5498 62.6053 28.2095 60.8496L29.9569 61.5486C30.7227 61.8563 31.5404 62.014 32.3657 62.013H44.4733C47.9812 62.0165 51.4355 61.152 54.5283 59.4967C57.6211 57.8413 60.2563 55.4465 62.1991 52.5257L62.565 51.9769C63.3153 50.8513 63.7153 49.5286 63.7144 48.1759C63.7135 47.4237 63.4144 46.7025 62.8825 46.1705C62.3507 45.6386 61.6296 45.34 60.8774 45.3389ZM46.1149 11.9917C46.1158 11.0092 46.5065 10.0672 47.2013 9.37254C47.8961 8.67789 48.8382 8.28736 49.8207 8.28671C50.8031 8.28758 51.7449 8.6782 52.4396 9.37283C53.1342 10.0675 53.5248 11.0093 53.5257 11.9917V13.8442H46.1149V11.9925V11.9917ZM41.3418 15.6975H44.2624V17.7206C43.7221 17.911 43.2539 18.264 42.9222 18.7311C42.5906 19.1983 42.4116 19.7566 42.41 20.3295C42.4108 21.0662 42.7039 21.7725 43.2248 22.2934C43.7457 22.8144 44.452 23.1074 45.1887 23.1083C45.9254 23.1074 46.6317 22.8144 47.1526 22.2934C47.6735 21.7725 47.9665 21.0662 47.9674 20.3295C47.9674 19.1235 47.1905 18.1037 46.1149 17.7206V15.6975H53.5257V17.7206C52.9854 17.911 52.5172 18.264 52.1855 18.7311C51.8538 19.1983 51.6749 19.7566 51.6732 20.3295C51.6741 21.0662 51.9671 21.7725 52.488 22.2934C53.009 22.8144 53.7152 23.1074 54.4519 23.1083C55.1886 23.1074 55.8949 22.8144 56.4158 22.2934C56.9368 21.7725 57.2298 21.0662 57.2307 20.3295C57.2307 19.1235 56.4537 18.1037 55.3782 17.7206V15.6975H58.2988L61.8053 36.7345C61.905 37.3372 61.8724 37.9544 61.7098 38.5432C61.5471 39.1321 61.2583 39.6785 60.8633 40.1445C60.4684 40.6106 59.9768 40.9851 59.4226 41.2422C58.8684 41.4992 58.2649 41.6326 57.654 41.6331H55.8532L53.3829 26.8141H39.4876L41.3418 15.6983V15.6975ZM46.1149 20.3295C46.1145 20.575 46.0167 20.8102 45.8431 20.9837C45.6695 21.1572 45.4341 21.2547 45.1887 21.2549C44.9432 21.2547 44.7079 21.1572 44.5343 20.9837C44.3606 20.8102 44.2629 20.575 44.2624 20.3295C44.2624 20.0837 44.3601 19.8478 44.534 19.674C44.7078 19.5001 44.9436 19.4025 45.1895 19.4025C45.4351 19.4029 45.6705 19.5008 45.844 19.6746C46.0175 19.8484 46.1149 20.0839 46.1149 20.3295ZM55.3774 20.3295C55.3769 20.5748 55.2793 20.81 55.1058 20.9834C54.9324 21.1569 54.6972 21.2545 54.4519 21.2549C54.2064 21.2549 53.9708 21.1575 53.797 20.984C53.6232 20.8105 53.5253 20.5751 53.5249 20.3295C53.5249 20.0837 53.6226 19.8478 53.7964 19.674C53.9703 19.5001 54.2061 19.4025 54.4519 19.4025C54.6977 19.4027 54.9333 19.5004 55.1069 19.6743C55.2806 19.8481 55.3774 20.0838 55.3774 20.3295ZM34.8589 28.6649H51.8143L55.3216 49.7035C55.3347 49.7823 55.3331 49.8643 55.3421 49.9439C53.265 51.6784 50.6635 52.6612 47.9584 52.7333C48.5619 51.9385 48.8902 50.9689 48.8937 49.971C48.893 49.2341 48.6001 48.5276 48.0791 48.0065C47.5582 47.4854 46.8518 47.1923 46.1149 47.1914H33.2443C32.7332 47.1914 32.2311 47.2735 31.7372 47.3924L34.8589 28.6665V28.6649ZM8.13728 50.8972H19.253V60.1597H8.1381L8.13728 50.8972ZM26.2749 54.1411C26.5325 54.5841 26.663 55.0501 26.663 55.5276C26.663 56.0059 26.5317 56.4727 26.2749 56.9141L26.0034 57.3809L26.2741 57.8469C26.5325 58.2883 26.663 58.7551 26.663 59.2334C26.6621 59.9701 26.3691 60.6764 25.8482 61.1973C25.3272 61.7182 24.6209 62.0113 23.8843 62.0121C22.8366 62.0121 21.6314 61.4674 21.1047 60.7897V50.2663C21.6314 49.5887 22.8358 49.0439 23.8843 49.0439C24.6211 49.0448 25.3275 49.3379 25.8484 49.859C26.3694 50.3801 26.6623 51.0866 26.663 51.8235C26.663 52.3009 26.5317 52.7678 26.2749 53.21L26.0034 53.6759L26.2749 54.1411ZM61.0218 50.9497L60.6559 51.4978C58.882 54.1645 56.476 56.351 53.6522 57.8623C50.8283 59.3736 47.6745 60.1629 44.4716 60.1597H32.364C31.7749 60.1606 31.191 60.048 30.6444 59.8282L28.4868 58.9643C28.4604 58.418 28.3344 57.8811 28.1151 57.3801C28.3793 56.7984 28.5159 56.1669 28.5159 55.528C28.5159 54.8891 28.3793 54.2577 28.1151 53.6759C28.3789 53.094 28.5154 52.4624 28.5155 51.8235C28.5155 51.7299 28.4933 51.6413 28.4876 51.5486L30.3499 50.0588C31.1719 49.4037 32.1916 49.0463 33.2427 49.0447H46.1149C46.3604 49.0452 46.5956 49.1429 46.7691 49.3165C46.9426 49.4902 47.0401 49.7255 47.0403 49.971C47.0395 50.7077 46.7464 51.4139 46.2255 51.9349C45.7046 52.4558 44.9983 52.7488 44.2616 52.7497H39.6304V54.6022H47.6401C51.647 54.6022 55.4578 52.8728 58.0954 49.8578L60.1333 47.5278C60.2654 47.3771 60.4403 47.2702 60.6346 47.2213C60.829 47.1725 61.0336 47.184 61.2213 47.2544C61.4089 47.3248 61.5707 47.4507 61.685 47.6153C61.7993 47.7799 61.8607 47.9755 61.8611 48.1759C61.862 49.1629 61.5699 50.1289 61.0218 50.9497Z" fill="white"/>
<path d="M23.8851 60.1588C24.1307 60.1588 24.3663 60.0612 24.54 59.8875C24.7137 59.7138 24.8113 59.4782 24.8113 59.2326C24.8113 58.9869 24.7137 58.7513 24.54 58.5776C24.3663 58.4039 24.1307 58.3063 23.8851 58.3063C23.6394 58.3063 23.4038 58.4039 23.2301 58.5776C23.0564 58.7513 22.9588 58.9869 22.9588 59.2326C22.9588 59.4782 23.0564 59.7138 23.2301 59.8875C23.4038 60.0612 23.6394 60.1588 23.8851 60.1588ZM23.8851 56.4538C24.1307 56.4538 24.3663 56.3563 24.54 56.1826C24.7137 56.0089 24.8113 55.7733 24.8113 55.5276C24.8113 55.2819 24.7137 55.0464 24.54 54.8727C24.3663 54.6989 24.1307 54.6014 23.8851 54.6014C23.6394 54.6014 23.4038 54.6989 23.2301 54.8727C23.0564 55.0464 22.9588 55.2819 22.9588 55.5276C22.9588 55.7733 23.0564 56.0089 23.2301 56.1826C23.4038 56.3563 23.6394 56.4538 23.8851 56.4538ZM23.8851 52.7489C24.01 52.7541 24.1347 52.7341 24.2516 52.6899C24.3686 52.6457 24.4754 52.5783 24.5657 52.4918C24.6559 52.4053 24.7277 52.3014 24.7768 52.1864C24.8258 52.0714 24.8511 51.9477 24.8511 51.8226C24.8511 51.6976 24.8258 51.5739 24.7768 51.4589C24.7277 51.3439 24.6559 51.24 24.5657 51.1535C24.4754 51.0669 24.3686 50.9995 24.2516 50.9554C24.1347 50.9112 24.01 50.8911 23.8851 50.8964C23.6462 50.9064 23.4204 51.0084 23.2549 51.181C23.0894 51.3536 22.997 51.5835 22.997 51.8226C22.997 52.0617 23.0894 52.2916 23.2549 52.4642C23.4204 52.6368 23.6462 52.7388 23.8851 52.7489ZM19.7962 18.4762C20.0891 18.771 20.4376 19.0047 20.8215 19.1638C21.2054 19.323 21.617 19.4044 22.0326 19.4033C22.8776 19.4033 23.6718 19.0743 24.2682 18.4762L26.5506 16.1946C26.8812 15.8662 27.1433 15.4754 27.3218 15.0448C27.5002 14.6143 27.5914 14.1527 27.5901 13.6866C27.5889 13.0407 27.4116 12.4073 27.0772 11.8546C26.7428 11.3019 26.2639 10.851 25.6922 10.5503C25.1205 10.2496 24.4776 10.1105 23.8328 10.1481C23.1879 10.1857 22.5655 10.3984 22.0326 10.7635C21.4998 10.3982 20.8773 10.1851 20.2323 10.1474C19.5873 10.1097 18.9443 10.2487 18.3725 10.5494C17.8007 10.8502 17.3218 11.3013 16.9875 11.8541C16.6531 12.407 16.476 13.0406 16.4751 13.6866C16.4751 14.6334 16.8435 15.5244 17.5138 16.1938L19.7962 18.4762ZM20.0226 11.9925C20.4738 11.9925 20.8996 12.1689 21.2187 12.488L22.0318 13.3002L22.8456 12.488C23.168 12.1944 23.5911 12.0362 24.0271 12.0464C24.463 12.0566 24.8783 12.2343 25.1866 12.5426C25.495 12.851 25.6727 13.2662 25.6828 13.7022C25.693 14.1381 25.5348 14.5612 25.2412 14.8836L22.9588 17.1668C22.4715 17.6542 21.5929 17.6542 21.1055 17.1668L18.824 14.8844C18.6659 14.7276 18.5406 14.541 18.4553 14.3354C18.3699 14.1298 18.3263 13.9093 18.3268 13.6866C18.3268 12.7522 19.0873 11.9925 20.0226 11.9925Z" fill="white"/>
<path d="M13.6956 23.1083H18.8699L21.9202 26.1585C22.1273 26.3668 22.3737 26.5319 22.6451 26.6443C22.9164 26.7566 23.2074 26.8141 23.5011 26.8132C24.0941 26.8126 24.6625 26.5767 25.0818 26.1575C25.5011 25.7382 25.7369 25.1697 25.7376 24.5768V23.1083H30.3688C31.1055 23.1074 31.8118 22.8144 32.3327 22.2934C32.8536 21.7725 33.1466 21.0662 33.1475 20.3295V9.21378C33.1466 8.47708 32.8536 7.7708 32.3327 7.24987C31.8118 6.72895 31.1055 6.43591 30.3688 6.43504H13.6956C12.9589 6.43591 12.2526 6.72895 11.7317 7.24987C11.2107 7.7708 10.9177 8.47708 10.9168 9.21378V20.3295C10.9177 21.0662 11.2107 21.7725 11.7317 22.2934C12.2526 22.8144 12.9589 23.1074 13.6956 23.1083ZM12.7693 9.21378C12.7695 8.96804 12.8673 8.73245 13.0411 8.55877C13.215 8.38509 13.4507 8.28753 13.6964 8.28753H30.3688C30.6145 8.28775 30.8501 8.38552 31.0238 8.55935C31.1975 8.73319 31.295 8.96887 31.295 9.2146V20.3295C31.2946 20.5751 31.1967 20.8105 31.0229 20.984C30.8491 21.1575 30.6136 21.2549 30.368 21.2549H23.8851V24.5776C23.8851 24.8894 23.4503 25.0699 23.2296 24.8483L19.6362 21.2549H13.6964C13.4508 21.2549 13.2152 21.1575 13.0414 20.984C12.8676 20.8105 12.7698 20.5751 12.7693 20.3295V9.21378ZM37.7787 35.905V39.7807C37.7803 41.2541 38.3663 42.6668 39.4082 43.7087C40.4501 44.7506 41.8627 45.3366 43.3362 45.3381C44.8097 45.3366 46.2223 44.7506 47.2642 43.7087C48.3061 42.6668 48.8921 41.2541 48.8937 39.7807V35.905C49.4339 35.7147 49.9019 35.3618 50.2336 34.8948C50.5653 34.4279 50.7443 33.8697 50.7462 33.2969C50.7453 32.5602 50.4522 31.854 49.9313 31.333C49.4104 30.8121 48.7041 30.5191 47.9674 30.5182C47.2307 30.5191 46.5244 30.8121 46.0035 31.333C45.4826 31.854 45.1896 32.5602 45.1887 33.2969C45.1887 34.5029 45.9664 35.5219 47.0412 35.9058V39.7807C47.0403 40.763 46.6497 41.7049 45.9551 42.3995C45.2604 43.0941 44.3186 43.4848 43.3362 43.4856C42.3538 43.4848 41.412 43.0941 40.7173 42.3995C40.0227 41.7049 39.6321 40.763 39.6312 39.7807V35.905C40.1714 35.7147 40.6395 35.3618 40.9712 34.8948C41.3029 34.4279 41.4819 33.8697 41.4837 33.2969C41.4828 32.5602 41.1898 31.854 40.6689 31.333C40.148 30.8121 39.4417 30.5191 38.705 30.5182C37.9683 30.5191 37.262 30.8121 36.7411 31.333C36.2202 31.854 35.9271 32.5602 35.9262 33.2969C35.9262 34.5029 36.7032 35.5211 37.7787 35.905ZM47.9682 32.3707C48.4777 32.3707 48.8937 32.7866 48.8937 33.2969C48.8934 33.5425 48.7958 33.778 48.6221 33.9517C48.4485 34.1253 48.213 34.223 47.9674 34.2232C47.7218 34.223 47.4864 34.1253 47.3127 33.9517C47.139 33.778 47.0414 33.5425 47.0412 33.2969C47.0412 32.7866 47.4571 32.3699 47.9682 32.3699V32.3707ZM38.7058 32.3707C39.2153 32.3707 39.6312 32.7866 39.6312 33.2969C39.631 33.5425 39.5333 33.778 39.3597 33.9517C39.186 34.1253 38.9506 34.223 38.705 34.2232C38.4594 34.223 38.2239 34.1253 38.0503 33.9517C37.8766 33.778 37.779 33.5425 37.7787 33.2969C37.7787 32.7866 38.1947 32.3699 38.7058 32.3699V32.3707Z" fill="white"/>
</svg>
