<svg width="70" height="71" viewBox="0 0 70 71" fill="none" xmlns="http://www.w3.org/2000/svg">
<g clip-path="url(#clip0_61_12917)">
<path d="M14.286 43.5458C14.852 43.5458 15.311 43.0868 15.311 42.5208V27.7788C15.311 27.2128 14.852 26.7538 14.286 26.7538H11.135C10.8632 26.7538 10.6024 26.8618 10.4102 27.0541C10.218 27.2463 10.11 27.507 10.11 27.7788C10.11 28.0507 10.218 28.3114 10.4102 28.5036C10.6024 28.6959 10.8632 28.8038 11.135 28.8038H13.26V42.5208C13.26 43.0868 13.72 43.5458 14.286 43.5458ZM49.634 42.8298C49.7581 42.8824 49.8914 42.9098 50.0261 42.9106C50.1609 42.9114 50.2945 42.8856 50.4192 42.8345C50.5439 42.7835 50.6573 42.7083 50.7529 42.6133C50.8485 42.5183 50.9243 42.4053 50.976 42.2808L56.753 28.5158C56.8051 28.3917 56.8322 28.2585 56.8328 28.1238C56.8334 27.9892 56.8074 27.8558 56.7564 27.7311C56.7055 27.6065 56.6304 27.4932 56.5356 27.3976C56.4409 27.3019 56.3282 27.2259 56.204 27.1738C56.0798 27.1218 55.9466 27.0947 55.812 27.0941C55.6773 27.0935 55.5439 27.1194 55.4193 27.1704C55.2947 27.2214 55.1813 27.2964 55.0857 27.3912C54.9901 27.486 54.9141 27.5987 54.862 27.7228L49.085 41.4878C48.865 42.0098 49.112 42.6108 49.634 42.8298ZM52.502 30.4438C52.502 28.2438 50.897 26.4528 48.925 26.4528C46.952 26.4528 45.347 28.2428 45.347 30.4438C45.347 32.6448 46.952 34.4358 48.925 34.4358C50.897 34.4358 52.502 32.6458 52.502 30.4438ZM48.925 32.3848C48.083 32.3848 47.398 31.5148 47.398 30.4448C47.398 29.3748 48.083 28.5038 48.925 28.5038C49.767 28.5038 50.452 29.3738 50.452 30.4438C50.452 31.5138 49.767 32.3848 48.925 32.3848ZM56.726 43.8468C58.699 43.8468 60.304 42.0568 60.304 39.8548C60.304 37.6548 58.699 35.8638 56.726 35.8638C54.754 35.8638 53.149 37.6538 53.149 39.8558C53.149 42.0558 54.754 43.8468 56.726 43.8468ZM56.726 37.9148C57.568 37.9148 58.253 38.7848 58.253 39.8548C58.253 40.9248 57.568 41.7958 56.726 41.7958C55.885 41.7958 55.199 40.9258 55.199 39.8558C55.199 38.7858 55.884 37.9148 56.726 37.9148ZM32.17 31.7408V38.5588C32.1716 39.961 32.7294 41.3052 33.7209 42.2966C34.7125 43.288 36.0568 43.8455 37.459 43.8468C38.861 43.8453 40.2051 43.2876 41.1964 42.2963C42.1878 41.3049 42.7454 39.9608 42.747 38.5588V31.7398C42.7454 30.3379 42.1878 28.9938 41.1964 28.0024C40.2051 27.0111 38.861 26.4534 37.459 26.4518C36.057 26.4534 34.7129 27.0111 33.7216 28.0024C32.7302 28.9938 32.1726 30.3379 32.171 31.7398L32.17 31.7408ZM40.696 31.7408V38.5588C40.6949 39.417 40.3536 40.2398 39.7467 40.8466C39.1399 41.4534 38.3172 41.7948 37.459 41.7958C36.6006 41.7951 35.7777 41.4538 35.1706 40.8469C34.5636 40.2401 34.2221 39.4172 34.221 38.5588V31.7398C34.2221 30.8815 34.5636 30.0586 35.1706 29.4518C35.7777 28.8449 36.6006 28.5036 37.459 28.5028C38.3172 28.5039 39.1399 28.8453 39.7467 29.4521C40.3536 30.0589 40.6949 30.8827 40.696 31.7408ZM18.53 31.7408V38.5588C18.5316 39.961 19.0894 41.3052 20.0809 42.2966C21.0725 43.288 22.4168 43.8455 23.819 43.8468C25.221 43.8453 26.5651 43.2876 27.5564 42.2963C28.5478 41.3049 29.1054 39.9608 29.107 38.5588V31.7398C29.1054 30.3379 28.5478 28.9938 27.5564 28.0024C26.5651 27.0111 25.221 26.4534 23.819 26.4518C22.4168 26.4532 21.0725 27.0107 20.0809 28.0021C19.0894 28.9934 18.5316 30.3387 18.53 31.7408ZM27.056 31.7408V38.5588C27.0549 39.4172 26.7134 40.2401 26.1064 40.8469C25.4993 41.4538 24.6764 41.7951 23.818 41.7958C22.9598 41.7948 22.1371 41.4534 21.5303 40.8466C20.9234 40.2398 20.5821 39.417 20.581 38.5588V31.7398C20.5821 30.8815 20.9236 30.0586 21.5306 29.4518C22.1377 28.8449 22.9606 28.5036 23.819 28.5028C24.6772 28.5039 25.4999 28.8453 26.1067 29.4521C26.7136 30.0589 27.0549 30.8827 27.056 31.7408ZM8.697 23.0238H61.303C61.5748 23.0238 61.8356 22.9159 62.0278 22.7236C62.22 22.5314 62.328 22.2707 62.328 21.9988C62.328 21.727 62.22 21.4663 62.0278 21.2741C61.8356 21.0818 61.5748 20.9738 61.303 20.9738H54.579C55.3401 20.0194 55.754 18.8346 55.753 17.6138C55.753 17.3419 55.645 17.081 55.4526 16.8887C55.2603 16.6964 54.9995 16.5883 54.7275 16.5883C54.4555 16.5883 54.1947 16.6964 54.0024 16.8887C53.81 17.081 53.702 17.3419 53.702 17.6138C53.7015 18.5046 53.3474 19.3588 52.7176 19.9888C52.0879 20.6188 51.2338 20.973 50.343 20.9738H45.59C45.883 20.7408 46.166 20.4928 46.434 20.2238C48.32 18.3388 49.336 15.7898 49.223 13.2308C49.2117 12.9746 49.1048 12.732 48.9234 12.5507C48.742 12.3695 48.4992 12.2629 48.243 12.2518C45.684 12.1388 43.135 13.1548 41.25 15.0408C40.6339 15.6558 40.1031 16.3506 39.672 17.1068C39.6054 17.2239 39.5625 17.3528 39.5458 17.4864C39.5291 17.62 39.5388 17.7556 39.5745 17.8854C39.6101 18.0152 39.671 18.1367 39.7536 18.243C39.8362 18.3493 39.939 18.4383 40.056 18.5048C40.173 18.5714 40.302 18.6143 40.4356 18.631C40.5691 18.6478 40.7047 18.638 40.8345 18.6024C40.9643 18.5667 41.0859 18.5058 41.1922 18.4232C41.2984 18.3406 41.3874 18.2379 41.454 18.1208C41.7945 17.5242 42.2136 16.976 42.7 16.4908C43.929 15.2618 45.506 14.5038 47.143 14.3308C46.971 15.9678 46.213 17.5458 44.984 18.7748C43.524 20.2348 41.589 20.9728 39.604 20.9728H36.026V16.9528C38.12 14.8628 39.314 11.9358 39.314 8.84684C39.314 5.59684 37.994 2.52485 35.694 0.418845C35.505 0.245625 35.2579 0.149536 35.0015 0.149536C34.7451 0.149536 34.498 0.245625 34.309 0.418845C32.007 2.52485 30.688 5.59684 30.688 8.84684C30.688 9.24684 30.708 9.64985 30.748 10.0448C30.7854 10.3068 30.9226 10.5442 31.1309 10.7074C31.3392 10.8706 31.6025 10.947 31.8658 10.9207C32.1291 10.8944 32.372 10.7673 32.5439 10.5661C32.7157 10.3649 32.8032 10.105 32.788 9.84085C32.7549 9.51054 32.7382 9.1788 32.738 8.84684C32.738 6.51884 33.553 4.30885 35.001 2.64185C36.449 4.30885 37.263 6.51884 37.263 8.84684C37.263 11.1748 36.449 13.3838 35.001 15.0508C34.662 14.6599 34.3576 14.2403 34.091 13.7968C34.0215 13.6815 33.93 13.5809 33.8217 13.5009C33.7134 13.4209 33.5903 13.363 33.4596 13.3306C33.3289 13.2981 33.1931 13.2917 33.06 13.3118C32.9268 13.3318 32.7989 13.3779 32.6835 13.4473C32.5681 13.5168 32.4676 13.6083 32.3876 13.7167C32.3076 13.825 32.2497 13.948 32.2172 14.0787C32.1848 14.2094 32.1784 14.3452 32.1984 14.4784C32.2185 14.6116 32.2645 14.7395 32.334 14.8548C32.7936 15.6192 33.3451 16.3244 33.976 16.9548V20.9728H31.615C31.447 18.7818 30.47 16.6648 28.845 15.0398C26.96 13.1548 24.411 12.1388 21.852 12.2518C21.322 12.2748 20.896 12.6998 20.872 13.2308C20.759 15.7898 21.776 18.3388 23.662 20.2248C23.929 20.4928 24.212 20.7408 24.505 20.9728H19.658C18.7676 20.9721 17.9138 20.618 17.2841 19.9885C16.6543 19.3589 16.3001 18.5053 16.299 17.6148C16.299 17.343 16.191 17.0823 15.9988 16.8901C15.8066 16.6978 15.5458 16.5898 15.274 16.5898C15.0022 16.5898 14.7414 16.6978 14.5492 16.8901C14.357 17.0823 14.249 17.343 14.249 17.6148C14.248 18.8348 14.6616 20.0189 15.422 20.9728H8.697C8.42515 20.9728 8.16444 21.0808 7.97221 21.2731C7.77999 21.4653 7.672 21.726 7.672 21.9978C7.672 22.2697 7.77999 22.5304 7.97221 22.7226C8.16444 22.9149 8.42515 23.0228 8.697 23.0228V23.0238ZM22.951 14.3318C24.588 14.5038 26.166 15.2618 27.394 16.4908C28.623 17.7188 29.381 19.2968 29.554 20.9338C27.917 20.7618 26.339 20.0028 25.11 18.7738C23.882 17.5458 23.123 15.9678 22.951 14.3318ZM61.303 47.2758H8.697C8.42515 47.2758 8.16444 47.3838 7.97221 47.5761C7.77999 47.7683 7.672 48.029 7.672 48.3008C7.672 48.5727 7.77999 48.8334 7.97221 49.0256C8.16444 49.2179 8.42515 49.3258 8.697 49.3258H15.421C14.6601 50.28 14.2462 51.4645 14.247 52.6848C14.247 52.9568 14.355 53.2177 14.5474 53.41C14.7397 53.6023 15.0005 53.7103 15.2725 53.7103C15.5445 53.7103 15.8053 53.6023 15.9976 53.41C16.19 53.2177 16.298 52.9568 16.298 52.6848C16.2991 51.7944 16.6533 50.9407 17.2831 50.3112C17.9128 49.6816 18.7666 49.3276 19.657 49.3268H24.41C24.118 49.5588 23.835 49.8068 23.567 50.0748C21.681 51.9608 20.665 54.5098 20.778 57.0688C20.802 57.5988 21.227 58.0238 21.758 58.0478C21.887 58.0528 22.016 58.0558 22.145 58.0558C24.572 58.0558 26.961 57.0488 28.751 55.2588C29.3671 54.6439 29.8979 53.9491 30.329 53.1928C30.3956 53.0758 30.4385 52.9469 30.4552 52.8133C30.4719 52.6797 30.4622 52.5441 30.4265 52.4143C30.3909 52.2845 30.33 52.163 30.2474 52.0567C30.1648 51.9504 30.062 51.8614 29.945 51.7948C29.828 51.7283 29.699 51.6854 29.5654 51.6686C29.4319 51.6519 29.2963 51.6617 29.1665 51.6973C29.0367 51.733 28.9151 51.7938 28.8088 51.8765C28.7026 51.9591 28.6136 52.0618 28.547 52.1788C28.2065 52.7755 27.7874 53.3237 27.301 53.8088C26.073 55.0368 24.495 55.7958 22.858 55.9678C23.03 54.3318 23.788 52.7528 25.017 51.5248C26.4379 50.1135 28.3603 49.3231 30.363 49.3268H33.975V53.3468C31.881 55.4368 30.687 58.3638 30.687 61.4528C30.687 64.7029 32.007 67.7748 34.307 69.8809C34.4959 70.0543 34.743 70.1505 34.9995 70.1505C35.256 70.1505 35.5031 70.0543 35.692 69.8809C37.994 67.7748 39.313 64.7029 39.313 61.4528C39.313 61.0528 39.293 60.6498 39.253 60.2548C39.2156 59.9929 39.0784 59.7555 38.8701 59.5923C38.6618 59.4291 38.3985 59.3527 38.1352 59.379C37.8719 59.4053 37.629 59.5324 37.4571 59.7336C37.2852 59.9348 37.1978 60.1947 37.213 60.4588C37.246 60.7868 37.263 61.1208 37.263 61.4528C37.263 63.7798 36.448 65.9909 35 67.6569C33.552 65.9909 32.737 63.7798 32.737 61.4528C32.737 59.1248 33.552 56.9148 35 55.2488C35.336 55.6358 35.64 56.0548 35.91 56.5028C35.9795 56.6182 36.071 56.7188 36.1793 56.7988C36.2876 56.8788 36.4107 56.9366 36.5414 56.9691C36.6721 57.0016 36.8079 57.0079 36.941 56.9879C37.0742 56.9679 37.2021 56.9218 37.3175 56.8523C37.4329 56.7829 37.5334 56.6914 37.6134 56.583C37.6934 56.4747 37.7513 56.3517 37.7837 56.221C37.8162 56.0903 37.8226 55.9545 37.8026 55.8213C37.7825 55.6881 37.7365 55.5602 37.667 55.4448C37.2074 54.6805 36.656 53.9752 36.025 53.3448V49.3268H38.386C38.554 51.5178 39.531 53.6348 41.156 55.2588C42.946 57.0488 45.334 58.0558 47.762 58.0558C47.891 58.0558 48.02 58.0528 48.149 58.0478C48.679 58.0238 49.105 57.5988 49.129 57.0678C49.242 54.5098 48.225 51.9608 46.339 50.0748C46.0726 49.8095 45.7911 49.5598 45.496 49.3268H50.343C51.2334 49.3276 52.0872 49.6816 52.7169 50.3112C53.3467 50.9407 53.7009 51.7944 53.702 52.6848C53.702 52.9567 53.81 53.2174 54.0022 53.4096C54.1944 53.6019 54.4552 53.7098 54.727 53.7098C54.9988 53.7098 55.2596 53.6019 55.4518 53.4096C55.644 53.2174 55.752 52.9567 55.752 52.6848C55.753 51.4649 55.3394 50.2808 54.579 49.3268H61.303C61.575 49.3268 61.8358 49.2188 62.0281 49.0265C62.2205 48.8342 62.3285 48.5733 62.3285 48.3013C62.3285 48.0294 62.2205 47.7685 62.0281 47.5762C61.8358 47.3839 61.575 47.2758 61.303 47.2758ZM47.049 55.9678C45.412 55.7958 43.834 55.0378 42.606 53.8088C41.377 52.5808 40.619 51.0028 40.446 49.3658C42.083 49.5378 43.661 50.2958 44.89 51.5258C46.118 52.7528 46.877 54.3318 47.049 55.9678Z" fill="white"/>
</g>
<defs>
<clipPath id="clip0_61_12917">
<rect width="70" height="70" fill="white" transform="translate(0 0.149841)"/>
</clipPath>
</defs>
</svg>
