<svg width="200" height="51" viewBox="0 0 200 51" fill="none" xmlns="http://www.w3.org/2000/svg">
<g clip-path="url(#clip0_2396_1767)">
<path fill-rule="evenodd" clip-rule="evenodd" d="M34.1278 46.2923C35.7177 44.2336 36.6644 41.6472 36.6644 38.8385C36.6644 32.1219 31.2508 26.677 24.5729 26.677C24.4403 26.677 24.3082 26.6791 24.1765 26.6834C24.1807 26.551 24.1829 26.418 24.1829 26.2846C24.1829 19.568 18.7694 14.1231 12.0914 14.1231C9.29891 14.1231 6.72747 15.0753 4.68056 16.6744C1.83259 18.8993 0 22.3767 0 26.2846V51H24.5729C28.4583 51 31.9157 49.1568 34.1278 46.2923ZM4.68056 26.2846V46.2923H24.5729C28.6658 46.2923 31.9838 42.9551 31.9838 38.8385C31.9838 34.7218 28.6658 31.3846 24.5729 31.3846C22.7248 31.3846 21.8426 31.3846 19.5023 31.3846C19.5023 29.4231 19.5023 28.1435 19.5023 26.2846C19.5023 22.168 16.1844 18.8308 12.0914 18.8308C7.99852 18.8308 4.68056 22.168 4.68056 26.2846Z" fill="#1E3B41"/>
<path fill-rule="evenodd" clip-rule="evenodd" d="M0 3.92308C0 1.75642 1.7463 0 3.90047 0H46.0255C48.1797 0 49.926 1.75642 49.926 3.92308V47.0769C49.926 49.2436 48.1797 51 46.0255 51H35.0394C36.5497 49.6839 37.8124 48.0879 38.7477 46.2923H45.2454V4.70769H4.68056V12.0277C2.89527 12.9684 1.30851 14.2384 0 15.7575V3.92308Z" fill="#1E3B41"/>
<path d="M200 7.31262V30.6H196.256V28.4345C195.611 29.2295 194.81 29.8258 193.853 30.2234C192.917 30.6209 191.877 30.8197 190.733 30.8197C189.131 30.8197 187.685 30.464 186.395 29.7526C185.126 29.0412 184.128 28.0369 183.4 26.7397C182.672 25.4215 182.308 23.9151 182.308 22.2203C182.308 20.5255 182.672 19.0295 183.4 17.7323C184.128 16.4351 185.126 15.4308 186.395 14.7194C187.685 14.008 189.131 13.6523 190.733 13.6523C191.835 13.6523 192.844 13.8406 193.759 14.2172C194.675 14.5939 195.455 15.1588 196.1 15.912V7.31262H200ZM191.201 27.4615C192.137 27.4615 192.979 27.2523 193.728 26.8338C194.477 26.3945 195.07 25.7772 195.507 24.9822C195.944 24.1871 196.162 23.2665 196.162 22.2203C196.162 21.1742 195.944 20.2535 195.507 19.4585C195.07 18.6634 194.477 18.0566 193.728 17.6382C192.979 17.1988 192.137 16.9791 191.201 16.9791C190.264 16.9791 189.422 17.1988 188.673 17.6382C187.924 18.0566 187.331 18.6634 186.894 19.4585C186.458 20.2535 186.239 21.1742 186.239 22.2203C186.239 23.2665 186.458 24.1871 186.894 24.9822C187.331 25.7772 187.924 26.3945 188.673 26.8338C189.422 27.2523 190.264 27.4615 191.201 27.4615Z" fill="white"/>
<path d="M173.786 27.4929C175.596 27.4929 177.104 26.8862 178.311 25.6726L180.37 28.0892C179.642 28.9889 178.706 29.6689 177.562 30.1292C176.417 30.5895 175.128 30.8197 173.692 30.8197C171.862 30.8197 170.25 30.4535 168.856 29.7212C167.462 28.9889 166.38 27.9742 165.611 26.6769C164.862 25.3588 164.487 23.8732 164.487 22.2203C164.487 20.5883 164.851 19.1237 165.579 17.8265C166.328 16.5083 167.348 15.4831 168.637 14.7508C169.948 14.0185 171.425 13.6523 173.068 13.6523C174.628 13.6523 176.043 13.9975 177.312 14.688C178.602 15.3575 179.621 16.3305 180.37 17.6068C181.119 18.8622 181.493 20.3372 181.493 22.032L168.731 24.5428C169.126 25.5052 169.761 26.2375 170.634 26.7397C171.508 27.2418 172.559 27.4929 173.786 27.4929ZM173.068 16.7908C171.633 16.7908 170.468 17.2615 169.573 18.2031C168.7 19.1446 168.263 20.4105 168.263 22.0006V22.032L177.686 20.2117C177.416 19.1865 176.865 18.36 176.033 17.7323C175.221 17.1046 174.233 16.7908 173.068 16.7908Z" fill="white"/>
<path d="M160.691 30.6L156.416 24.7938L152.11 30.6H147.804L154.294 22.0948L148.085 13.8406H152.422L156.51 19.3329L160.597 13.8406H164.81L158.569 22.032L165.091 30.6H160.691Z" fill="white"/>
<path d="M139.567 30.8197C137.882 30.8197 136.364 30.4535 135.012 29.7212C133.66 28.9889 132.599 27.9742 131.829 26.6769C131.08 25.3588 130.706 23.8732 130.706 22.2203C130.706 20.5674 131.08 19.0923 131.829 17.7951C132.599 16.4979 133.66 15.4831 135.012 14.7508C136.364 14.0185 137.882 13.6523 139.567 13.6523C141.273 13.6523 142.802 14.0185 144.154 14.7508C145.507 15.4831 146.557 16.4979 147.306 17.7951C148.076 19.0923 148.46 20.5674 148.46 22.2203C148.46 23.8732 148.076 25.3588 147.306 26.6769C146.557 27.9742 145.507 28.9889 144.154 29.7212C142.802 30.4535 141.273 30.8197 139.567 30.8197ZM139.567 27.4615C141.003 27.4615 142.189 26.9803 143.125 26.0178C144.061 25.0554 144.529 23.7895 144.529 22.2203C144.529 20.6511 144.061 19.3852 143.125 18.4228C142.189 17.4603 141.003 16.9791 139.567 16.9791C138.132 16.9791 136.946 17.4603 136.01 18.4228C135.095 19.3852 134.637 20.6511 134.637 22.2203C134.637 23.7895 135.095 25.0554 136.01 26.0178C136.946 26.9803 138.132 27.4615 139.567 27.4615Z" fill="white"/>
<path d="M121.483 13.6523C123.106 13.6523 124.552 14.008 125.821 14.7194C127.11 15.4308 128.119 16.4351 128.847 17.7323C129.576 19.0295 129.94 20.5255 129.94 22.2203C129.94 23.9151 129.576 25.4215 128.847 26.7397C128.119 28.0369 127.11 29.0412 125.821 29.7526C124.552 30.464 123.106 30.8197 121.483 30.8197C120.339 30.8197 119.289 30.6209 118.332 30.2234C117.396 29.8258 116.605 29.2295 115.96 28.4345V30.6H112.247V7.31262H116.148V15.8806C116.813 15.1483 117.593 14.5939 118.488 14.2172C119.403 13.8406 120.402 13.6523 121.483 13.6523ZM121.047 27.4615C122.482 27.4615 123.657 26.9803 124.573 26.0178C125.509 25.0554 125.977 23.7895 125.977 22.2203C125.977 20.6511 125.509 19.3852 124.573 18.4228C123.657 17.4603 122.482 16.9791 121.047 16.9791C120.11 16.9791 119.268 17.1988 118.519 17.6382C117.77 18.0566 117.177 18.6634 116.74 19.4585C116.304 20.2535 116.085 21.1742 116.085 22.2203C116.085 23.2665 116.304 24.1871 116.74 24.9822C117.177 25.7772 117.77 26.3945 118.519 26.8338C119.268 27.2523 120.11 27.4615 121.047 27.4615Z" fill="white"/>
<path d="M101.901 13.6523C104.002 13.6523 105.687 14.2695 106.956 15.504C108.225 16.7385 108.859 18.5692 108.859 20.9963V30.6H104.959V21.4985C104.959 20.0339 104.616 18.9354 103.929 18.2031C103.243 17.4499 102.265 17.0732 100.996 17.0732C99.5606 17.0732 98.4269 17.5126 97.5948 18.3914C96.7627 19.2492 96.3466 20.4942 96.3466 22.1262V30.6H92.4462V13.8406H96.1594V16.0062C96.8043 15.232 97.6156 14.6462 98.5933 14.2486C99.571 13.8511 100.674 13.6523 101.901 13.6523Z" fill="white"/>
<path d="M88.8994 13.8406V30.6H85.1862V28.4658C84.5621 29.2191 83.782 29.8049 82.8459 30.2234C81.9098 30.6209 80.9009 30.8197 79.8191 30.8197C77.5933 30.8197 75.8355 30.2025 74.5457 28.968C73.2767 27.7126 72.6423 25.8609 72.6423 23.4129V13.8406H76.5427V22.8794C76.5427 24.3858 76.8756 25.5157 77.5413 26.2689C78.2277 27.0012 79.1951 27.3674 80.4432 27.3674C81.837 27.3674 82.9395 26.9385 83.7508 26.0806C84.5829 25.2018 84.9989 23.9465 84.9989 22.3145V13.8406H88.8994Z" fill="white"/>
<path d="M174.986 48.0185C174.143 48.0185 173.327 47.8982 172.536 47.6576C171.756 47.417 171.137 47.0979 170.679 46.7003L171.382 45.1154C171.829 45.4711 172.375 45.764 173.02 45.9942C173.675 46.2139 174.33 46.3237 174.986 46.3237C175.797 46.3237 176.4 46.193 176.795 45.9314C177.201 45.6699 177.404 45.3246 177.404 44.8957C177.404 44.5819 177.289 44.3256 177.061 44.1268C176.842 43.9176 176.561 43.7554 176.218 43.6403C175.875 43.5253 175.407 43.3945 174.814 43.248C173.982 43.0493 173.306 42.8505 172.786 42.6517C172.276 42.453 171.834 42.1443 171.46 41.7259C171.096 41.297 170.914 40.7216 170.914 39.9997C170.914 39.393 171.075 38.8437 171.397 38.352C171.73 37.8499 172.224 37.4523 172.879 37.1594C173.545 36.8665 174.356 36.72 175.313 36.72C175.979 36.72 176.634 36.8037 177.279 36.9711C177.924 37.1385 178.48 37.3791 178.948 37.693L178.309 39.2779C177.83 38.9954 177.331 38.781 176.811 38.6345C176.291 38.488 175.787 38.4148 175.298 38.4148C174.497 38.4148 173.899 38.5508 173.503 38.8228C173.119 39.0948 172.926 39.4557 172.926 39.9056C172.926 40.2194 173.035 40.4757 173.254 40.6745C173.483 40.8733 173.769 41.0302 174.112 41.1453C174.455 41.2603 174.923 41.3911 175.516 41.5376C176.327 41.7259 176.993 41.9246 177.513 42.1339C178.033 42.3326 178.475 42.6413 178.839 43.0597C179.214 43.4782 179.401 44.0431 179.401 44.7545C179.401 45.3613 179.235 45.9105 178.902 46.4022C178.579 46.8939 178.085 47.2862 177.419 47.5791C176.754 47.872 175.943 48.0185 174.986 48.0185Z" fill="white"/>
<path d="M164.213 47.8616L161.982 44.6446C161.889 44.6551 161.748 44.6603 161.561 44.6603H159.096V47.8616H157.068V36.877H161.561C162.508 36.877 163.329 37.0339 164.026 37.3477C164.733 37.6616 165.274 38.1114 165.649 38.6973C166.023 39.2831 166.21 39.9788 166.21 40.7843C166.21 41.6108 166.008 42.3222 165.602 42.9185C165.207 43.5148 164.635 43.9594 163.886 44.2523L166.398 47.8616H164.213ZM164.167 40.7843C164.167 40.0834 163.938 39.5446 163.48 39.168C163.022 38.7914 162.352 38.6031 161.467 38.6031H159.096V42.9813H161.467C162.352 42.9813 163.022 42.793 163.48 42.4163C163.938 42.0293 164.167 41.4853 164.167 40.7843Z" fill="white"/>
<path d="M151.686 46.1511V47.8616H143.495V36.877H151.468V38.5874H145.524V41.4434H150.797V43.1225H145.524V46.1511H151.686Z" fill="white"/>
<path d="M131.035 36.877H133.063V46.1354H138.774V47.8616H131.035V36.877Z" fill="white"/>
<path d="M118.575 36.877H120.603V46.1354H126.314V47.8616H118.575V36.877Z" fill="white"/>
<path d="M110.472 36.877H112.501V47.8616H110.472V36.877Z" fill="white"/>
<path d="M99.4463 38.5874V41.9299H104.72V43.656H99.4463V47.8616H97.418V36.877H105.391V38.5874H99.4463Z" fill="white"/>
</g>
<defs>
<clipPath id="clip0_2396_1767">
<rect width="200" height="51" fill="white"/>
</clipPath>
</defs>
</svg>
