<svg width="214" height="55" viewBox="0 0 214 55" fill="none" xmlns="http://www.w3.org/2000/svg">
<g clip-path="url(#clip0_61_3998)">
<path fill-rule="evenodd" clip-rule="evenodd" d="M36.5167 49.9231C38.2179 47.7028 39.2309 44.9136 39.2309 41.8846C39.2309 34.6412 33.4384 28.7692 26.293 28.7692C26.1511 28.7692 26.0097 28.7716 25.8688 28.7762C25.8734 28.6334 25.8757 28.49 25.8757 28.3462C25.8757 21.1027 20.0832 15.2308 12.9378 15.2308C9.94983 15.2308 7.1984 16.2576 5.0082 17.9822C1.96087 20.3816 0 24.1317 0 28.3462V55H26.293C30.4504 55 34.1498 53.0122 36.5167 49.9231ZM5.0082 28.3462V49.9231H26.293C30.6725 49.9231 34.2227 46.3241 34.2227 41.8846C34.2227 37.4451 30.6725 33.8462 26.293 33.8462C24.3155 33.8462 23.3716 33.8462 20.8675 33.8462C20.8675 31.7308 20.8675 30.3508 20.8675 28.3462C20.8675 23.9066 17.3173 20.3077 12.9378 20.3077C8.55842 20.3077 5.0082 23.9066 5.0082 28.3462Z" fill="#C19476"/>
<path fill-rule="evenodd" clip-rule="evenodd" d="M0 4.23077C0 1.89418 1.86854 0 4.1735 0H49.2473C51.5522 0 53.4208 1.89418 53.4208 4.23077V50.7692C53.4208 53.1058 51.5522 55 49.2473 55H37.4921C39.1082 53.5807 40.4593 51.8595 41.46 49.9231H48.4126V5.07692H5.0082V12.971C3.09794 13.9855 1.40011 15.3551 0 16.9934V4.23077Z" fill="#C19476"/>
<path d="M214 7.88617V33H209.993V30.6646C209.303 31.5221 208.446 32.1651 207.423 32.5939C206.421 33.0226 205.308 33.2369 204.084 33.2369C202.37 33.2369 200.823 32.8533 199.443 32.0862C198.085 31.319 197.017 30.2359 196.238 28.8369C195.459 27.4154 195.069 25.7908 195.069 23.9631C195.069 22.1354 195.459 20.5221 196.238 19.1231C197.017 17.7241 198.085 16.641 199.443 15.8739C200.823 15.1067 202.37 14.7231 204.084 14.7231C205.264 14.7231 206.343 14.9262 207.322 15.3323C208.302 15.7385 209.137 16.3477 209.827 17.16V7.88617H214ZM204.585 29.6154C205.586 29.6154 206.488 29.3898 207.289 28.9385C208.09 28.4646 208.725 27.799 209.192 26.9416C209.66 26.0841 209.893 25.0913 209.893 23.9631C209.893 22.8349 209.66 21.8421 209.192 20.9846C208.725 20.1272 208.09 19.4728 207.289 19.0216C206.488 18.5477 205.586 18.3108 204.585 18.3108C203.583 18.3108 202.682 18.5477 201.88 19.0216C201.079 19.4728 200.444 20.1272 199.977 20.9846C199.51 21.8421 199.276 22.8349 199.276 23.9631C199.276 25.0913 199.51 26.0841 199.977 26.9416C200.444 27.799 201.079 28.4646 201.88 28.9385C202.682 29.3898 203.583 29.6154 204.585 29.6154Z" fill="#1E3B41"/>
<path d="M185.951 29.6492C187.887 29.6492 189.501 28.9949 190.792 27.6862L192.996 30.2923C192.217 31.2626 191.215 31.9959 189.991 32.4923C188.767 32.9887 187.387 33.2369 185.851 33.2369C183.892 33.2369 182.167 32.8421 180.676 32.0523C179.184 31.2626 178.027 30.1682 177.203 28.7692C176.402 27.3477 176.001 25.7457 176.001 23.9631C176.001 22.2031 176.391 20.6236 177.17 19.2246C177.971 17.8031 179.062 16.6974 180.442 15.9077C181.844 15.118 183.425 14.7231 185.183 14.7231C186.852 14.7231 188.366 15.0954 189.724 15.84C191.104 16.5621 192.195 17.6113 192.996 18.9877C193.797 20.3416 194.198 21.9323 194.198 23.76L180.542 26.4677C180.965 27.5057 181.644 28.2954 182.579 28.8369C183.514 29.3785 184.638 29.6492 185.951 29.6492ZM185.183 18.1077C183.647 18.1077 182.401 18.6154 181.444 19.6308C180.509 20.6462 180.041 22.0113 180.041 23.7262V23.76L190.124 21.7969C189.835 20.6913 189.245 19.8 188.355 19.1231C187.487 18.4462 186.43 18.1077 185.183 18.1077Z" fill="#1E3B41"/>
<path d="M171.939 33L167.365 26.7385L162.758 33H158.15L165.095 23.8277L158.451 14.9262H163.091L167.465 20.8492L171.839 14.9262H176.346L169.669 23.76L176.647 33H171.939Z" fill="#1E3B41"/>
<path d="M149.337 33.2369C147.534 33.2369 145.909 32.8421 144.463 32.0523C143.016 31.2626 141.88 30.1682 141.057 28.7692C140.256 27.3477 139.855 25.7457 139.855 23.9631C139.855 22.1805 140.256 20.5898 141.057 19.1908C141.88 17.7918 143.016 16.6974 144.463 15.9077C145.909 15.118 147.534 14.7231 149.337 14.7231C151.162 14.7231 152.798 15.118 154.245 15.9077C155.692 16.6974 156.816 17.7918 157.617 19.1908C158.441 20.5898 158.853 22.1805 158.853 23.9631C158.853 25.7457 158.441 27.3477 157.617 28.7692C156.816 30.1682 155.692 31.2626 154.245 32.0523C152.798 32.8421 151.162 33.2369 149.337 33.2369ZM149.337 29.6154C150.873 29.6154 152.142 29.0964 153.143 28.0585C154.145 27.0205 154.646 25.6554 154.646 23.9631C154.646 22.2708 154.145 20.9057 153.143 19.8677C152.142 18.8298 150.873 18.3108 149.337 18.3108C147.801 18.3108 146.533 18.8298 145.531 19.8677C144.552 20.9057 144.062 22.2708 144.062 23.9631C144.062 25.6554 144.552 27.0205 145.531 28.0585C146.533 29.0964 147.801 29.6154 149.337 29.6154Z" fill="#1E3B41"/>
<path d="M129.987 14.7231C131.723 14.7231 133.27 15.1067 134.628 15.8739C136.008 16.641 137.088 17.7241 137.867 19.1231C138.646 20.5221 139.035 22.1354 139.035 23.9631C139.035 25.7908 138.646 27.4154 137.867 28.8369C137.088 30.2359 136.008 31.319 134.628 32.0862C133.27 32.8533 131.723 33.2369 129.987 33.2369C128.763 33.2369 127.639 33.0226 126.615 32.5939C125.613 32.1651 124.768 31.5221 124.078 30.6646V33H120.104V7.88617H124.278V17.1262C124.99 16.3364 125.825 15.7385 126.782 15.3323C127.761 14.9262 128.83 14.7231 129.987 14.7231ZM129.52 29.6154C131.056 29.6154 132.313 29.0964 133.293 28.0585C134.294 27.0205 134.795 25.6554 134.795 23.9631C134.795 22.2708 134.294 20.9057 133.293 19.8677C132.313 18.8298 131.056 18.3108 129.52 18.3108C128.518 18.3108 127.617 18.5477 126.815 19.0216C126.014 19.4728 125.38 20.1272 124.912 20.9846C124.445 21.8421 124.211 22.8349 124.211 23.9631C124.211 25.0913 124.445 26.0841 124.912 26.9416C125.38 27.799 126.014 28.4646 126.815 28.9385C127.617 29.3898 128.518 29.6154 129.52 29.6154Z" fill="#1E3B41"/>
<path d="M109.034 14.7231C111.282 14.7231 113.085 15.3887 114.443 16.72C115.801 18.0513 116.479 20.0257 116.479 22.6431V33H112.306V23.1846C112.306 21.6051 111.939 20.4205 111.204 19.6308C110.47 18.8185 109.423 18.4123 108.066 18.4123C106.53 18.4123 105.317 18.8862 104.426 19.8339C103.536 20.759 103.091 22.1016 103.091 23.8616V33H98.9174V14.9262H102.891V17.2616C103.581 16.4267 104.449 15.7949 105.495 15.3662C106.541 14.9375 107.721 14.7231 109.034 14.7231Z" fill="#1E3B41"/>
<path d="M95.1224 14.9262V33H91.1492V30.6985C90.4814 31.5108 89.6467 32.1426 88.6451 32.5939C87.6435 33.0226 86.5639 33.2369 85.4065 33.2369C83.0248 33.2369 81.1439 32.5713 79.7639 31.24C78.4061 29.8862 77.7272 27.8892 77.7272 25.2492V14.9262H81.9007V24.6739C81.9007 26.2985 82.2569 27.5169 82.9691 28.3292C83.7037 29.119 84.7387 29.5139 86.0742 29.5139C87.5656 29.5139 88.7453 29.0513 89.6134 28.1262C90.5037 27.1785 90.9489 25.8246 90.9489 24.0646V14.9262H95.1224Z" fill="#1E3B41"/>
<path d="M187.235 51.7846C186.333 51.7846 185.459 51.6548 184.614 51.3954C183.779 51.1359 183.117 50.7918 182.627 50.3631L183.378 48.6538C183.857 49.0374 184.441 49.3533 185.131 49.6015C185.832 49.8384 186.533 49.9569 187.235 49.9569C188.103 49.9569 188.748 49.8159 189.171 49.5338C189.605 49.2518 189.822 48.8795 189.822 48.4169C189.822 48.0784 189.7 47.802 189.455 47.5877C189.221 47.362 188.921 47.1872 188.553 47.0631C188.186 46.9389 187.685 46.7979 187.051 46.64C186.161 46.4256 185.437 46.2113 184.881 45.9969C184.335 45.7825 183.862 45.4497 183.462 44.9984C183.072 44.5359 182.877 43.9154 182.877 43.1369C182.877 42.4825 183.05 41.8902 183.395 41.36C183.751 40.8184 184.28 40.3897 184.981 40.0738C185.693 39.7579 186.561 39.6 187.585 39.6C188.297 39.6 188.999 39.6902 189.689 39.8707C190.379 40.0513 190.974 40.3107 191.475 40.6492L190.79 42.3584C190.278 42.0538 189.744 41.8225 189.188 41.6646C188.631 41.5066 188.092 41.4277 187.568 41.4277C186.712 41.4277 186.072 41.5743 185.649 41.8677C185.237 42.161 185.031 42.5502 185.031 43.0354C185.031 43.3738 185.148 43.6502 185.382 43.8646C185.626 44.0789 185.932 44.2482 186.3 44.3723C186.667 44.4964 187.168 44.6374 187.802 44.7954C188.67 44.9984 189.383 45.2128 189.939 45.4384C190.495 45.6528 190.968 45.9856 191.358 46.4369C191.759 46.8882 191.959 47.4974 191.959 48.2646C191.959 48.9189 191.781 49.5113 191.425 50.0415C191.08 50.5718 190.551 50.9948 189.839 51.3107C189.127 51.6266 188.259 51.7846 187.235 51.7846Z" fill="#C19476"/>
<path d="M175.708 51.6154L173.321 48.1461C173.221 48.1574 173.071 48.1631 172.87 48.1631H170.233V51.6154H168.062V39.7692H172.87C173.883 39.7692 174.762 39.9384 175.508 40.2769C176.265 40.6154 176.844 41.1005 177.244 41.7323C177.645 42.3641 177.845 43.1143 177.845 43.9831C177.845 44.8743 177.628 45.6415 177.194 46.2846C176.771 46.9277 176.159 47.4072 175.358 47.7231L178.045 51.6154H175.708ZM175.658 43.9831C175.658 43.2272 175.413 42.6461 174.924 42.24C174.434 41.8338 173.716 41.6307 172.77 41.6307H170.233V46.3523H172.77C173.716 46.3523 174.434 46.1492 174.924 45.7431C175.413 45.3256 175.658 44.739 175.658 43.9831Z" fill="#C19476"/>
<path d="M162.304 49.7707V51.6154H153.54V39.7692H162.071V41.6138H155.71V44.6938H161.353V46.5046H155.71V49.7707H162.304Z" fill="#C19476"/>
<path d="M140.208 39.7692H142.378V49.7538H148.488V51.6154H140.208V39.7692Z" fill="#C19476"/>
<path d="M126.875 39.7692H129.045V49.7538H135.155V51.6154H126.875V39.7692Z" fill="#C19476"/>
<path d="M118.205 39.7692H120.376V51.6154H118.205V39.7692Z" fill="#C19476"/>
<path d="M106.408 41.6138V45.2184H112.05V47.08H106.408V51.6154H104.237V39.7692H112.768V41.6138H106.408Z" fill="#C19476"/>
</g>
<defs>
<clipPath id="clip0_61_3998">
<rect width="214" height="55" fill="white"/>
</clipPath>
</defs>
</svg>
