<svg width="31" height="31" viewBox="0 0 31 31" fill="none" xmlns="http://www.w3.org/2000/svg">
<path fill-rule="evenodd" clip-rule="evenodd" d="M13.5903 2.85158C15.1822 1.87477 17.2911 1.55297 19.7966 2.88513C22.3275 4.23086 23.1831 6.24779 23.2403 8.12687C23.2952 9.92764 22.6231 11.5478 22.2166 12.3123L13.4144 28.8668C13.4143 28.8669 13.414 28.8675 12.5864 28.4275L13.4144 28.8668C13.1713 29.324 12.6033 29.4982 12.1461 29.2551C11.689 29.0121 11.5154 28.4444 11.7585 27.9872L12.5864 28.4275C11.7589 27.9874 11.7584 27.9874 11.7585 27.9872L20.5611 11.432C20.5611 11.432 20.5611 11.432 20.5611 11.432C20.8881 10.8169 21.4072 9.53103 21.3662 8.18396C21.3275 6.91516 20.8001 5.5423 18.9163 4.54066C17.007 3.52547 15.6057 3.81473 14.571 4.44969C13.4638 5.12905 12.6898 6.26636 12.2835 7.03067C12.0404 7.48783 11.4727 7.66139 11.0156 7.41831C10.5584 7.17524 10.3849 6.60758 10.6279 6.15042C11.1018 5.25921 12.0708 3.784 13.5903 2.85158Z" fill="#C19476"/>
</svg>
