<svg width="31" height="31" viewBox="0 0 31 31" fill="none" xmlns="http://www.w3.org/2000/svg">
<rect width="31" height="31"/>
<g id="Rheumatology">
<g id="Vector">
<path d="M14.1287 4.9517C14.2182 4.84588 14.3703 4.81853 14.491 4.88653L14.1287 4.9517ZM14.491 4.88653C14.491 4.88653 14.491 4.88653 14.491 4.88653V4.88653ZM12.6968 3.74119C13.3672 2.94822 14.5064 2.74327 15.4111 3.25283L21.1857 6.50518C21.4057 6.62909 21.5664 6.8365 21.6315 7.08047L24.0987 16.3324C24.1042 16.3531 24.1117 16.3729 24.121 16.3914L29.0642 26.2778C29.2095 26.5684 29.194 26.9135 29.0231 27.1899C28.8523 27.4663 28.5506 27.6345 28.2256 27.6345H20.1006C19.6586 27.6345 19.2766 27.3257 19.184 26.8935L17.3367 18.273C17.3045 18.1225 17.2881 17.9688 17.2881 17.8146V10.2717L12.9948 6.82564C12.0461 6.06409 11.9114 4.67027 12.6968 3.74119ZM14.1287 4.9517C14.0239 5.07571 14.0419 5.26178 14.1685 5.36342C14.1685 5.36341 14.1685 5.36342 14.1685 5.36342L18.8125 9.09092C19.0342 9.26885 19.1631 9.53777 19.1631 9.82203V17.8146C19.1631 17.8365 19.1655 17.8585 19.1701 17.8803L20.8585 25.7595H26.7087L22.4441 17.2302C22.444 17.2301 22.4441 17.2303 22.4441 17.2302C22.3776 17.0974 22.3251 16.9584 22.287 16.8155C22.287 16.8155 22.287 16.8155 22.287 16.8155L19.9215 7.94511" fill="#C19476"/>
<path d="M24.1352 16.4696C24.2608 16.9719 23.9554 17.4809 23.4531 17.6065L18.4531 18.8565C17.9508 18.9821 17.4418 18.6767 17.3162 18.1744C17.1906 17.6721 17.496 17.1631 17.9983 17.0375L22.9983 15.7875C23.5006 15.6619 24.0096 15.9673 24.1352 16.4696Z" fill="#C19476"/>
<path d="M13.3018 8.89271C13.5457 8.86027 13.7926 8.92499 13.9892 9.07292L16.2892 10.8037C16.5245 10.9808 16.663 11.2582 16.663 11.5528V14.4855C16.663 14.655 16.617 14.8212 16.5301 14.9667L15.5565 16.5947C14.8663 17.7489 13.3079 18.0129 12.2761 17.1503C12.276 17.1503 12.2762 17.1504 12.2761 17.1503L12.2362 17.117C12.156 17.0499 12.0812 16.9776 12.0124 16.9012L11.638 18.6702V26.697C11.638 27.2148 11.2182 27.6345 10.7005 27.6345H3.22547C2.92604 27.6345 2.64463 27.4915 2.46814 27.2496C2.29165 27.0077 2.24132 26.6961 2.33269 26.4109L5.889 15.3128C5.92526 15.1996 5.97077 15.0893 6.02509 14.9833C6.02505 14.9834 6.02513 14.9832 6.02509 14.9833L8.61601 9.92354C8.75623 9.64971 9.02188 9.4621 9.32684 9.42153L13.3018 8.89271ZM10.061 11.2154L7.69401 15.8379C7.6864 15.8527 7.67979 15.8687 7.67457 15.8849C7.67456 15.885 7.67458 15.8849 7.67457 15.8849L4.51034 25.7595H9.76297V18.572C9.76297 18.5068 9.76978 18.4417 9.7833 18.3779L10.4333 15.3074L10.4388 15.2831L10.7513 13.9786C10.8523 13.5569 11.2293 13.2595 11.663 13.2595H12.6005C12.8794 13.2595 13.1439 13.3837 13.322 13.5984C13.5001 13.8131 13.5733 14.0959 13.5219 14.37L13.3321 15.381C13.3112 15.492 13.3519 15.6057 13.4385 15.6782M13.4385 15.6782L13.4785 15.7116C13.6258 15.8348 13.8487 15.7973 13.9473 15.6324L14.788 14.2266V12.0206L13.1685 10.802L10.061 11.2154" fill="#C19476"/>
<path d="M6.13714 15.6527C6.3687 15.1896 6.93183 15.0019 7.39493 15.2335L11.1449 17.1085C11.608 17.34 11.7957 17.9032 11.5642 18.3663C11.3326 18.8294 10.7695 19.0171 10.3064 18.7855L6.55641 16.9105C6.0933 16.679 5.90559 16.1158 6.13714 15.6527Z" fill="#C19476"/>
</g>
</g>
</svg>
