<svg width="25" height="24" viewBox="0 0 25 24" fill="none" xmlns="http://www.w3.org/2000/svg">
<path id="Vector" d="M12.6883 5.8467C9.2831 5.8467 6.53642 8.594 6.53642 12C6.53642 15.406 9.2831 18.1533 12.6883 18.1533C16.0936 18.1533 18.8403 15.406 18.8403 12C18.8403 8.594 16.0936 5.8467 12.6883 5.8467ZM12.6883 16.0004C10.4878 16.0004 8.68879 14.2064 8.68879 12C8.68879 9.7936 10.4824 7.99955 12.6883 7.99955C14.8943 7.99955 16.6879 9.7936 16.6879 12C16.6879 14.2064 14.8889 16.0004 12.6883 16.0004ZM20.5268 5.595C20.5268 6.39295 19.8843 7.03024 19.0919 7.03024C18.2941 7.03024 17.657 6.38759 17.657 5.595C17.657 4.80241 18.2995 4.15977 19.0919 4.15977C19.8843 4.15977 20.5268 4.80241 20.5268 5.595ZM24.6013 7.05166C24.5103 5.12909 24.0713 3.42608 22.6631 2.02298C21.2603 0.619882 19.5577 0.180743 17.6356 0.0843468C15.6545 -0.0281156 9.71679 -0.0281156 7.73575 0.0843468C5.81897 0.175388 4.11634 0.614526 2.7082 2.01763C1.30006 3.42073 0.866372 5.12373 0.769997 7.0463C0.65756 9.02778 0.65756 14.9669 0.769997 16.9483C0.861018 18.8709 1.30006 20.5739 2.7082 21.977C4.11634 23.3801 5.81361 23.8193 7.73575 23.9157C9.71679 24.0281 15.6545 24.0281 17.6356 23.9157C19.5577 23.8246 21.2603 23.3855 22.6631 21.977C24.0659 20.5739 24.505 18.8709 24.6013 16.9483C24.7138 14.9669 24.7138 9.03314 24.6013 7.05166ZM22.0421 19.0744C21.6244 20.1241 20.816 20.9327 19.7612 21.3558C18.1817 21.9824 14.4338 21.8378 12.6883 21.8378C10.9429 21.8378 7.18963 21.977 5.61551 21.3558C4.56609 20.9381 3.75762 20.1294 3.33464 19.0744C2.7082 17.4946 2.85276 13.7458 2.85276 12C2.85276 10.2542 2.71356 6.50006 3.33464 4.92558C3.75226 3.87593 4.56074 3.06728 5.61551 2.6442C7.19498 2.01763 10.9429 2.16222 12.6883 2.16222C14.4338 2.16222 18.1871 2.02298 19.7612 2.6442C20.8106 3.06192 21.6191 3.87058 22.0421 4.92558C22.6685 6.50541 22.5239 10.2542 22.5239 12C22.5239 13.7458 22.6685 17.4999 22.0421 19.0744Z" fill="#C19476"/>
</svg>
