<svg width="70" height="71" viewBox="0 0 70 71" fill="none" xmlns="http://www.w3.org/2000/svg">
<g id="i-delivery">
<path id="Vector" d="M22.277 55.6833C22.3482 55.471 22.3506 55.2417 22.2836 55.028C22.2167 54.8143 22.084 54.6273 21.9044 54.4935L13.4023 48.1167C13.2184 47.9785 12.9946 47.9037 12.7646 47.9037C12.5346 47.9037 12.3108 47.9785 12.1269 48.1167L3.62382 54.4935C3.44864 54.6246 3.31816 54.8065 3.2502 55.0145C3.18223 55.2225 3.18009 55.4463 3.24405 55.6556C3.30801 55.8648 3.43497 56.0492 3.60761 56.1836C3.78024 56.318 3.99014 56.3959 4.20867 56.4066H5.27178V65.9719C5.27988 66.2483 5.39538 66.5107 5.59379 66.7034C5.79219 66.8961 6.05787 67.0039 6.33444 67.0039C6.611 67.0039 6.87668 66.8961 7.07509 66.7034C7.27349 66.5107 7.389 66.2483 7.39709 65.9719V56.4066H18.0255V65.9719C18.0336 66.2483 18.1491 66.5107 18.3475 66.7034C18.5459 66.8961 18.8116 67.0039 19.0881 67.0039C19.3647 67.0039 19.6304 66.8961 19.8288 66.7034C20.0272 66.5107 20.1427 66.2483 20.1508 65.9719V56.4066H21.2139C21.6904 56.4312 22.1258 56.136 22.277 55.6833ZM12.7117 50.2948L18.0246 54.2804H7.39709L12.7108 50.2948H12.7117Z" fill="white"/>
<path id="Vector_2" d="M14.8371 59.5942H10.5855C9.99886 59.5942 9.52241 60.0706 9.52241 60.6573V65.971C9.52241 66.253 9.63442 66.5234 9.83379 66.7227C10.0332 66.9221 10.3036 67.0341 10.5855 67.0341C10.8675 67.0341 11.1379 66.9221 11.3373 66.7227C11.5366 66.5234 11.6486 66.253 11.6486 65.971V61.7204H13.774V65.971C13.782 66.2475 13.8976 66.5099 14.096 66.7025C14.2944 66.8952 14.56 67.003 14.8366 67.003C15.1132 67.003 15.3789 66.8952 15.5773 66.7025C15.7757 66.5099 15.8912 66.2475 15.8993 65.971V60.6573C15.8993 60.0706 15.4237 59.5942 14.8371 59.5942ZM52.0351 18.1446H64.7888C65.3755 18.1446 65.8519 17.6691 65.8519 17.0824V4.32868C65.8519 3.7411 65.3755 3.26556 64.7888 3.26556H52.0351C51.4484 3.26556 50.972 3.7411 50.972 4.32868V17.0824C50.972 17.6691 51.4484 18.1446 52.0351 18.1446ZM59.4751 5.39088V7.5171H57.3488V5.39088H59.4751ZM53.0982 5.39088H55.2235V8.57931C55.2235 9.16689 55.7 9.64242 56.2866 9.64242H60.5373C61.1248 9.64242 61.6004 9.16689 61.6004 8.57931V5.39088H63.7257V16.0193H53.0982V5.39088ZM35.0307 13.894C29.9279 13.8924 24.9971 15.7386 21.1502 19.0911L21.0864 19.1439C18.7916 21.1319 16.951 23.59 15.6893 26.3516C14.4277 29.1132 13.7745 32.1137 13.774 35.1498C13.782 35.4263 13.8976 35.6887 14.096 35.8814C14.2944 36.0741 14.56 36.1818 14.8366 36.1818C15.1132 36.1818 15.3789 36.0741 15.5773 35.8814C15.7757 35.6887 15.8912 35.4263 15.8993 35.1498C15.9077 32.5604 16.4436 29.9999 17.4742 27.6244C18.5048 25.2489 20.0084 23.1083 21.8935 21.333L26.8146 24.2873L29.3226 28.4651L24.9225 31.1005C24.7995 31.1745 24.6926 31.2725 24.6085 31.3889C24.5243 31.5052 24.4646 31.6373 24.4328 31.7773C24.4011 31.9173 24.398 32.0623 24.4238 32.2035C24.4495 32.3448 24.5036 32.4793 24.5827 32.5991L28.8343 38.976C29.0411 39.2529 29.3708 39.4114 29.7161 39.4014C29.9256 39.4032 30.1297 39.3403 30.3009 39.2201C30.534 39.0643 30.6959 38.8227 30.7516 38.5479C30.8072 38.2732 30.752 37.9876 30.5979 37.7534L26.9631 32.3012L31.3203 29.6867C31.4404 29.6156 31.5453 29.5216 31.629 29.4099C31.7128 29.2983 31.7737 29.1712 31.8083 29.036C31.8429 28.9008 31.8505 28.7602 31.8307 28.622C31.8109 28.4839 31.7641 28.351 31.6929 28.231L28.5045 22.9172C28.4134 22.7633 28.2859 22.6357 28.1319 22.5446L23.6153 19.8345C25.9102 18.0916 28.5741 16.8979 31.4023 16.3452C34.2305 15.7925 37.1478 15.8954 39.93 16.646L37.73 18.2512L34.69 19.2605C34.5529 19.3067 34.4267 19.3803 34.319 19.4769C34.2114 19.5736 34.1245 19.6911 34.0638 19.8224C34.0031 19.9537 33.9698 20.096 33.966 20.2406C33.9621 20.3852 33.9878 20.5291 34.0414 20.6634L36.1677 25.9781C36.3498 26.4646 36.8582 26.7479 37.3683 26.6477L40.0466 26.1157L36.2952 31.3665C35.99 31.7874 36.0346 32.3677 36.4009 32.7376L39.5893 35.926C39.9346 36.2694 40.4684 36.3359 40.8856 36.0854L45.7867 33.1411L47.6879 33.7788L46.7213 41.3992C46.7036 41.5389 46.7137 41.6807 46.7512 41.8165C46.7887 41.9522 46.8527 42.0792 46.9397 42.1899C47.0267 42.3007 47.1348 42.3931 47.2577 42.4617C47.3807 42.5304 47.5161 42.5739 47.656 42.5898H47.7836C48.0447 42.5917 48.2975 42.4974 48.4936 42.3248C48.6896 42.1522 48.8153 41.9135 48.8467 41.6542L49.9098 33.1521C49.94 32.9094 49.8857 32.6638 49.7559 32.4565C49.6261 32.2492 49.4289 32.093 49.1974 32.0142L46.009 30.9511C45.8637 30.9027 45.7097 30.8863 45.5575 30.903C45.4053 30.9196 45.2585 30.969 45.1271 31.0477L40.524 33.8107L38.5581 31.8448L43.3407 25.1382C43.4621 24.9653 43.5293 24.7602 43.5337 24.5491C43.5382 24.3379 43.4797 24.1302 43.3656 23.9524C43.2516 23.7745 43.0873 23.6347 42.8935 23.5506C42.6997 23.4665 42.4853 23.442 42.2776 23.4802L37.8357 24.373L36.4537 20.9185L38.579 20.2171C38.6786 20.1824 38.772 20.1323 38.856 20.0686L42.4689 17.5069C51.0394 21.0998 55.771 30.349 53.6712 39.4014H52.0342C51.7577 39.4095 51.4953 39.525 51.3026 39.7234C51.11 39.9218 51.0022 40.1875 51.0022 40.464C51.0022 40.7406 51.11 41.0063 51.3026 41.2047C51.4953 41.4031 51.7577 41.5186 52.0342 41.5267H53.0973C52.1461 44.2199 50.6066 46.6672 48.5907 48.6906L45.6573 47.2449V44.7151C45.6573 44.3808 45.4997 44.0656 45.2328 43.8652L40.9813 40.6768C40.8459 40.5762 40.6886 40.5092 40.5223 40.4814C40.356 40.4535 40.1855 40.4655 40.0247 40.5164C39.7004 40.6166 39.4435 40.8662 39.3333 41.1869L37.208 47.5638C37.106 47.8753 37.1533 48.216 37.3355 48.4875L39.2805 51.4846L39.5993 53.6965C35.9107 54.6383 32.0231 54.4382 28.4507 53.1226L33.1268 52.1542C33.5695 52.0576 33.903 51.6896 33.9558 51.2396L35.018 42.7374C35.0436 42.5716 35.0296 42.4022 34.9772 42.2429C34.9248 42.0836 34.8353 41.939 34.7163 41.8209C34.5972 41.7028 34.4518 41.6145 34.2921 41.5634C34.1324 41.5123 33.9628 41.4997 33.7973 41.5267L27.4204 42.5898C27.1464 42.6433 26.9038 42.8011 26.7438 43.03C26.5839 43.2589 26.5192 43.5409 26.5633 43.8167C26.6073 44.0924 26.7568 44.3402 26.9801 44.5079C27.2034 44.6755 27.4832 44.7498 27.7602 44.7151L32.7342 43.8861L31.948 50.263L25.327 51.6868C21.7717 49.5894 18.9902 46.3982 17.3978 42.5898C17.3434 42.4614 17.2642 42.3451 17.1648 42.2473C17.0654 42.1495 16.9477 42.0723 16.8184 42.02C16.6892 41.9678 16.5509 41.9414 16.4115 41.9426C16.272 41.9438 16.1342 41.9724 16.0059 42.0268C15.8775 42.0813 15.7611 42.1604 15.6633 42.2598C15.5656 42.3593 15.4884 42.477 15.4361 42.6062C15.3838 42.7355 15.3575 42.8738 15.3587 43.0132C15.3598 43.1526 15.3884 43.2904 15.4429 43.4188C16.7722 46.5493 18.8334 49.3152 21.4532 51.4841C24.0731 53.653 27.1751 55.1616 30.4987 55.8831C33.8224 56.6047 37.2707 56.5183 40.5541 55.631C43.8374 54.7437 46.8599 53.0815 49.3677 50.7841L49.4525 50.7094C52.5738 47.8044 54.7492 44.0278 55.6961 39.8703C56.6431 35.7128 56.3178 31.3666 54.7624 27.3964C53.2071 23.4262 50.4936 20.0156 46.9746 17.6076C43.4556 15.1997 39.2947 13.9058 35.0307 13.894ZM41.4076 50.9435C41.3896 50.7857 41.3309 50.6354 41.2373 50.5071L39.398 47.7441L40.8965 43.2585L43.5329 45.2462V47.9036C43.5329 48.3044 43.7607 48.6688 44.1169 48.8491L46.8061 50.1992C45.2603 51.4107 43.536 52.3751 41.6946 53.0579L41.4067 50.9426L41.4076 50.9435ZM4.66507 41.5267H4.84727C4.98479 41.5023 5.11614 41.451 5.23382 41.3758C5.3515 41.3006 5.45319 41.2029 5.53306 41.0883C5.61294 40.9737 5.66944 40.8445 5.69933 40.7081C5.72921 40.5717 5.7319 40.4307 5.70723 40.2932C5.58998 39.6207 5.49791 38.9439 5.43121 38.2645C5.42203 38.1217 5.38414 37.9823 5.31981 37.8546C5.25548 37.7268 5.16603 37.6133 5.05682 37.521C4.94761 37.4286 4.82088 37.3592 4.68423 37.317C4.54757 37.2747 4.40379 37.2605 4.26151 37.2752C3.68212 37.3371 3.25943 37.8536 3.31591 38.4339C3.39061 39.1563 3.48626 39.8897 3.6138 40.5592C3.63736 40.8223 3.75811 41.0672 3.95248 41.2461C4.14686 41.425 4.40092 41.525 4.66507 41.5267ZM7.08919 45.3847C6.99194 45.1198 6.79344 44.9043 6.53735 44.7858C6.28125 44.6672 5.98855 44.6552 5.72363 44.7525C5.45871 44.8497 5.24327 45.0482 5.1247 45.3043C5.00614 45.5604 4.99416 45.8531 5.09141 46.118C5.33555 46.7985 5.62251 47.4781 5.9204 48.1477C6.09075 48.5294 6.46972 48.7744 6.88695 48.7744C7.03635 48.7772 7.18484 48.7489 7.3224 48.6906C7.45053 48.6332 7.56601 48.5509 7.66218 48.4486C7.75834 48.3462 7.83327 48.2259 7.88265 48.0944C7.93203 47.963 7.95488 47.823 7.94988 47.6827C7.94487 47.5424 7.91212 47.4044 7.8535 47.2768C7.57832 46.6544 7.32311 46.0234 7.08828 45.3847H7.08919ZM5.71816 25.5846C5.83659 25.6265 5.96413 25.6483 6.08984 25.6483C6.53713 25.6483 6.93705 25.3677 7.08919 24.9469C7.31238 24.3201 7.57747 23.6824 7.85441 23.0447C7.92617 22.9158 7.97029 22.7733 7.98396 22.6263C7.99763 22.4794 7.98055 22.3312 7.93381 22.1912C7.88708 22.0512 7.8117 21.9225 7.71249 21.8132C7.61328 21.7039 7.49241 21.6165 7.35757 21.5565C7.22272 21.4965 7.07687 21.4653 6.92928 21.4648C6.7817 21.4642 6.63562 21.4944 6.50034 21.5534C6.36506 21.6124 6.24356 21.699 6.14355 21.8075C6.04355 21.916 5.96724 22.0442 5.91949 22.1839C5.61876 22.8502 5.34225 23.5272 5.0905 24.2135C5.04101 24.3447 5.01801 24.4844 5.02282 24.6245C5.02763 24.7646 5.06015 24.9024 5.11851 25.0299C5.17687 25.1574 5.25991 25.272 5.36284 25.3672C5.46576 25.4624 5.58653 25.5363 5.71816 25.5846ZM4.26151 33.0245H4.37811C4.64254 33.0259 4.89797 32.9286 5.09454 32.7517C5.29111 32.5749 5.41472 32.3311 5.44123 32.068C5.50499 31.3984 5.60156 30.7179 5.71816 30.0374C5.766 29.7555 5.69987 29.4661 5.53433 29.2329C5.36878 28.9997 5.11738 28.8418 4.83542 28.7939C4.55347 28.7461 4.26406 28.8122 4.03086 28.9778C3.79766 29.1433 3.63978 29.3947 3.59194 29.6767C3.4644 30.3991 3.36875 31.1324 3.29496 31.802C3.27243 31.9466 3.28001 32.0942 3.31722 32.2358C3.35444 32.3773 3.4205 32.5096 3.51125 32.6243C3.602 32.7391 3.71548 32.8339 3.84459 32.9028C3.97369 32.9716 4.11563 33.0131 4.26151 33.0245ZM24.7959 63.0914C24.1582 62.8573 23.5205 62.6022 22.8929 62.3262C22.7637 62.2521 22.6205 62.2059 22.4724 62.1906C22.3243 62.1754 22.1746 62.1914 22.0331 62.2376C21.8916 62.2838 21.7613 62.3592 21.6507 62.4589C21.5402 62.5586 21.4518 62.6803 21.3912 62.8164C21.3307 62.9524 21.2994 63.0996 21.2993 63.2485C21.2992 63.3973 21.3304 63.5446 21.3907 63.6807C21.4511 63.8168 21.5394 63.9386 21.6499 64.0385C21.7603 64.1383 21.8905 64.2138 22.032 64.2602C22.6915 64.5581 23.3821 64.8341 24.0616 65.0892C24.1819 65.1311 24.3076 65.1529 24.4342 65.1529C24.6844 65.1533 24.9267 65.0654 25.1184 64.9047C25.3101 64.7439 25.4389 64.5207 25.4821 64.2743C25.5254 64.0279 25.4802 63.7741 25.3547 63.5577C25.2292 63.3413 25.0313 63.1762 24.7959 63.0914ZM31.948 64.7494C31.2682 64.6826 30.5912 64.5903 29.9183 64.4724C29.6391 64.4307 29.3547 64.5001 29.1261 64.6657C28.8974 64.8313 28.7429 65.08 28.6955 65.3583C28.6482 65.6366 28.7118 65.9224 28.8728 66.1543C29.0339 66.3862 29.2794 66.5458 29.5567 66.5987C30.2791 66.7262 31.0124 66.8209 31.6829 66.8956H31.8414C32.1219 66.9076 32.3958 66.8081 32.6033 66.619C32.8109 66.4298 32.9352 66.1663 32.9493 65.8859C32.9633 65.6054 32.866 65.3308 32.6784 65.1219C32.4909 64.9129 32.2283 64.7865 31.948 64.7703V64.7494ZM29.7161 5.84819H29.8965C30.5696 5.73066 31.247 5.63858 31.927 5.57216C32.0674 5.56004 32.204 5.52015 32.3288 5.45479C32.4536 5.38943 32.5642 5.29991 32.6541 5.19144C32.744 5.08297 32.8114 4.95771 32.8525 4.82294C32.8936 4.68817 32.9075 4.54658 32.8934 4.4064C32.8792 4.26621 32.8374 4.13024 32.7702 4.00638C32.7031 3.88251 32.612 3.77323 32.5023 3.68488C32.3925 3.59653 32.2663 3.53087 32.131 3.49173C31.9956 3.45259 31.8538 3.44074 31.7139 3.45687C30.9915 3.53157 30.2581 3.62722 29.5886 3.75476C29.3115 3.78467 29.0571 3.92184 28.8799 4.13691C28.7026 4.35197 28.6166 4.62787 28.6401 4.90556C28.6637 5.18326 28.795 5.44071 29.006 5.62283C29.2169 5.80495 29.4908 5.89728 29.7689 5.88007L29.7161 5.84819ZM22.4683 8.06916C22.6141 8.06734 22.7599 8.03454 22.8929 7.97442C23.5189 7.69921 24.1536 7.44401 24.7959 7.20919C24.9271 7.16098 25.0476 7.08739 25.1504 6.99263C25.2532 6.89787 25.3363 6.78378 25.395 6.6569C25.4537 6.53001 25.4869 6.3928 25.4925 6.2531C25.4982 6.11341 25.4763 5.97396 25.4281 5.84272C25.3799 5.71149 25.3063 5.59103 25.2116 5.48824C25.1168 5.38544 25.0027 5.30232 24.8758 5.24361C24.6196 5.12505 24.3267 5.11314 24.0616 5.2105C23.3821 5.46558 22.6915 5.74252 22.032 6.0395C21.812 6.14025 21.6329 6.31305 21.5244 6.52935C21.4159 6.74564 21.3844 6.99248 21.4352 7.22908C21.4859 7.46568 21.6159 7.67788 21.8036 7.83063C21.9913 7.98337 22.2264 8.06752 22.4683 8.06916ZM45.2647 7.20828C45.9024 7.4424 46.5401 7.69748 47.1677 7.97351C47.3007 8.03454 47.4456 8.06734 47.5922 8.06916C47.8343 8.06772 48.0686 7.98372 48.2565 7.83105C48.4443 7.67838 48.5744 7.46617 48.6253 7.22952C48.6762 6.99286 48.6448 6.74593 48.5363 6.52955C48.4278 6.31317 48.2487 6.14029 48.0286 6.0395C47.3609 5.74126 46.6837 5.46478 45.998 5.2105C45.7363 5.12629 45.4521 5.14658 45.205 5.26713C44.9578 5.38769 44.7669 5.59916 44.6721 5.85729C44.5774 6.11542 44.5862 6.40019 44.6966 6.652C44.807 6.90382 45.0106 7.10315 45.2647 7.20828ZM38.1126 5.5503C38.7822 5.61407 39.4618 5.70972 40.1423 5.82724H40.3226C40.6011 5.84504 40.8754 5.75305 41.0868 5.571C41.2982 5.38894 41.4299 5.13131 41.4536 4.85332C41.4773 4.57533 41.3912 4.29911 41.2136 4.08388C41.0361 3.86865 40.7813 3.73153 40.5039 3.70192C39.7985 3.58035 39.0894 3.481 38.3777 3.40403C38.2381 3.3901 38.0972 3.40378 37.9629 3.44431C37.8287 3.48484 37.7037 3.55141 37.5952 3.64023C37.4867 3.72906 37.3967 3.83838 37.3304 3.96198C37.2641 4.08557 37.2228 4.22101 37.2089 4.36056C37.195 4.50011 37.2086 4.64104 37.2492 4.7753C37.2897 4.90956 37.3563 5.03453 37.4451 5.14306C37.5339 5.25159 37.6433 5.34156 37.7668 5.40784C37.8904 5.47412 38.0259 5.51541 38.1654 5.52935L38.1126 5.5503ZM40.1423 64.4724C39.4618 64.59 38.7822 64.6856 38.1126 64.7494C37.9721 64.755 37.8341 64.7883 37.7065 64.8476C37.579 64.9068 37.4644 64.9907 37.3695 65.0945C37.2746 65.1983 37.2012 65.3199 37.1536 65.4522C37.106 65.5845 37.0851 65.725 37.092 65.8654C37.099 66.0059 37.1338 66.1435 37.1943 66.2705C37.2548 66.3974 37.3399 66.5111 37.4446 66.605C37.5494 66.6988 37.6717 66.771 37.8044 66.8173C37.9372 66.8636 38.0779 66.8831 38.2183 66.8747H38.3249C39.0374 66.805 39.7468 66.7056 40.4511 66.5768C40.7329 66.5287 40.9841 66.3707 41.1494 66.1374C41.3147 65.9041 41.3805 65.6147 41.3324 65.3329C41.2844 65.051 41.1263 64.7998 40.893 64.6345C40.6597 64.4693 40.3703 64.4034 40.0885 64.4515L40.1423 64.4724ZM47.1677 62.3262C46.541 62.6022 45.9024 62.8573 45.2647 63.0914C45.0275 63.1778 44.8288 63.3459 44.7042 63.5654C44.5796 63.7849 44.5371 64.0416 44.5845 64.2896C44.6318 64.5375 44.7658 64.7606 44.9626 64.9188C45.1593 65.0769 45.4059 65.16 45.6582 65.1529C45.7858 65.1529 45.9106 65.1311 46.0308 65.0892C46.7104 64.8341 47.4018 64.5581 48.0596 64.2602C48.1984 64.2119 48.3257 64.1353 48.4333 64.0352C48.541 63.9352 48.6268 63.8139 48.6851 63.679C48.7435 63.5441 48.7733 63.3985 48.7725 63.2516C48.7718 63.1046 48.7405 62.9594 48.6807 62.8251C48.621 62.6908 48.534 62.5704 48.4253 62.4715C48.3166 62.3725 48.1885 62.2972 48.0492 62.2504C47.9099 62.2035 47.7624 62.186 47.616 62.199C47.4696 62.2121 47.3275 62.2554 47.1987 62.3262H47.1677ZM64.3534 30.0374C64.47 30.7179 64.5656 31.3984 64.6294 32.068C64.684 32.6128 65.1441 33.0263 65.6925 33.0245H65.8519C66.1304 32.9949 66.3859 32.8565 66.5629 32.6395C66.74 32.4226 66.8243 32.1445 66.7975 31.8658C66.7279 31.1535 66.6285 30.4444 66.4996 29.7404C66.4427 29.4672 66.2821 29.2266 66.0515 29.0693C65.8209 28.912 65.5384 28.8502 65.2632 28.8969C64.988 28.9436 64.7416 29.0952 64.5758 29.3198C64.4101 29.5443 64.3378 29.8245 64.3743 30.1012L64.3534 30.0374ZM64.9692 24.1816C64.7175 23.4953 64.441 22.8183 64.1402 22.152C64.0938 22.0105 64.0183 21.8803 63.9185 21.7699C63.8186 21.6594 63.6967 21.5711 63.5607 21.5107C63.4246 21.4504 63.2773 21.4192 63.1285 21.4193C62.9796 21.4194 62.8324 21.4507 62.6964 21.5112C62.5603 21.5718 62.4386 21.6602 62.3389 21.7708C62.2392 21.8813 62.1638 22.0116 62.1176 22.1531C62.0714 22.2946 62.0554 22.4443 62.0706 22.5924C62.0859 22.7405 62.1321 22.8837 62.2062 23.0129C62.4822 23.6505 62.7482 24.2882 62.9714 24.915C63.1235 25.3359 63.5235 25.6164 63.9707 25.6164C64.1427 25.6172 64.3123 25.5762 64.465 25.4969C64.6176 25.4176 64.7487 25.3025 64.847 25.1613C64.9453 25.0202 65.0079 24.8573 65.0293 24.6867C65.0507 24.516 65.0295 24.3427 64.9692 24.1816ZM54.1613 57.979C53.6393 58.4144 53.0982 58.8399 52.5452 59.2434C52.3194 59.4092 52.1681 59.6574 52.1243 59.9341C52.0804 60.2108 52.1476 60.4936 52.3111 60.721C52.5097 60.9998 52.8304 61.1656 53.172 61.1674C53.3943 61.1656 53.6093 61.0945 53.7887 60.9652C54.3836 60.5297 54.9684 60.0724 55.5314 59.6051C55.6382 59.5151 55.7262 59.4049 55.7904 59.2809C55.8546 59.1568 55.8937 59.0214 55.9056 58.8822C55.9174 58.7431 55.9017 58.6029 55.8594 58.4698C55.8171 58.3368 55.749 58.2133 55.659 58.1065C55.5689 57.9997 55.4588 57.9118 55.3347 57.8476C55.2107 57.7834 55.0753 57.7442 54.9361 57.7324C54.7969 57.7205 54.6568 57.7362 54.5237 57.7785C54.3906 57.8209 54.2681 57.889 54.1613 57.979ZM59.1243 52.6124C58.7199 53.1645 58.2953 53.6746 57.859 54.2276C57.769 54.3343 57.7008 54.4578 57.6585 54.5909C57.6162 54.724 57.6005 54.8641 57.6124 55.0033C57.6242 55.1424 57.6634 55.2779 57.7276 55.4019C57.7918 55.5259 57.8797 55.6361 57.9865 55.7261C58.0933 55.8162 58.2167 55.8843 58.3498 55.9266C58.4829 55.9689 58.6231 55.9846 58.7622 55.9727C58.9014 55.9609 59.0368 55.9217 59.1609 55.8576C59.2849 55.7934 59.3951 55.7054 59.4851 55.5986C59.9587 55.037 60.4127 54.4591 60.8461 53.8659C61.0123 53.6376 61.081 53.3526 61.0371 53.0736C60.9932 52.7946 60.8403 52.5445 60.612 52.3783C60.3836 52.2121 60.0986 52.1433 59.8197 52.1872C59.5407 52.2311 59.2906 52.3841 59.1243 52.6124ZM15.2716 12.5758C15.5221 12.573 15.7635 12.4829 15.953 12.3207C16.4775 11.8817 17.0161 11.46 17.5682 11.0563C17.7819 10.886 17.9218 10.6399 17.9589 10.3692C17.996 10.0985 17.9274 9.82394 17.7674 9.60244C17.6075 9.38093 17.3684 9.22952 17.0997 9.17964C16.8311 9.12975 16.5535 9.18521 16.3247 9.33451C15.7301 9.77009 15.149 10.2237 14.582 10.6946C14.413 10.8349 14.2915 11.0241 14.2344 11.2362C14.1772 11.4483 14.1872 11.6729 14.2629 11.8791C14.3386 12.0853 14.4763 12.263 14.6571 12.3877C14.8379 12.5125 15.0529 12.5782 15.2725 12.5758H15.2716ZM10.0754 18.1446C10.4152 18.1455 10.7358 17.9843 10.9363 17.7091C11.3398 17.1562 11.7652 16.646 12.2016 16.0931C12.3862 15.8788 12.4781 15.5999 12.4571 15.3178C12.4361 15.0358 12.3039 14.7736 12.0896 14.589C11.8752 14.4044 11.5964 14.3126 11.3143 14.3336C11.0323 14.3546 10.7701 14.4868 10.5855 14.7011C10.1094 15.2641 9.65535 15.8454 9.22452 16.4438C9.06213 16.6726 8.99675 16.9563 9.04266 17.2331C9.08856 17.5099 9.24202 17.7573 9.46958 17.9214C9.64357 18.0571 9.85492 18.1355 10.0754 18.1446ZM64.3424 44.7151C64.2106 44.666 64.0703 44.6436 63.9298 44.6491C63.7892 44.6546 63.6512 44.688 63.5236 44.7474C63.3961 44.8067 63.2816 44.8908 63.1868 44.9947C63.092 45.0986 63.0188 45.2204 62.9714 45.3528C62.7373 45.9796 62.4831 46.6282 62.2062 47.244C62.1477 47.3716 62.115 47.5096 62.1101 47.6499C62.1051 47.7902 62.128 47.9301 62.1774 48.0615C62.2267 48.1929 62.3016 48.3133 62.3977 48.4156C62.4938 48.518 62.6092 48.6003 62.7373 48.6578C62.8748 48.7171 63.0242 48.7462 63.1736 48.7435C63.5909 48.7426 63.9698 48.4975 64.1411 48.1167C64.4381 47.4462 64.725 46.7667 64.9701 46.0861C65.0194 45.955 65.0424 45.8153 65.0375 45.6752C65.0326 45.5351 65.0001 45.3974 64.9417 45.2699C64.8834 45.1425 64.8004 45.0279 64.6975 44.9326C64.5947 44.8374 64.474 44.7635 64.3424 44.7151ZM65.8519 37.2752C65.5713 37.2458 65.2906 37.329 65.0713 37.5065C64.852 37.6839 64.7121 37.9411 64.6822 38.2217C64.6184 38.8912 64.5228 39.5708 64.4062 40.2513C64.3748 40.3882 64.3708 40.5299 64.3945 40.6683C64.4181 40.8066 64.469 40.939 64.5442 41.0576C64.6193 41.1762 64.7172 41.2787 64.8322 41.3592C64.9472 41.4397 65.0771 41.4967 65.2142 41.5267H65.3946C65.6478 41.5306 65.8941 41.4439 66.0891 41.2822C66.284 41.1205 66.4147 40.8945 66.4577 40.6449C66.5853 39.9225 66.6809 39.1882 66.7556 38.5186C66.7811 38.3773 66.7778 38.2323 66.7458 38.0922C66.7137 37.9522 66.6537 37.8201 66.5693 37.7039C66.4848 37.5878 66.3777 37.4899 66.2545 37.4162C66.1312 37.3425 65.9942 37.2945 65.8519 37.2752Z" fill="white"/>
</g>
</svg>
