<svg width="22" height="18" viewBox="0 0 22 18" fill="none" xmlns="http://www.w3.org/2000/svg">
<g id="Vector">
<path fill-rule="evenodd" clip-rule="evenodd" d="M0.249954 1.5C0.249954 1.08579 0.585741 0.75 0.999954 0.75H21C21.4142 0.75 21.75 1.08579 21.75 1.5V16.5C21.75 16.9142 21.4142 17.25 21 17.25H0.999954C0.585741 17.25 0.249954 16.9142 0.249954 16.5V1.5ZM1.74995 2.25V15.75H20.25V2.25H1.74995Z" fill="#C19476"/>
<path fill-rule="evenodd" clip-rule="evenodd" d="M0.399998 1.05004C0.648526 0.718673 1.11863 0.651516 1.45 0.900044L11 8.06254L20.55 0.900044C20.8814 0.651516 21.3515 0.718673 21.6 1.05004C21.8485 1.38142 21.7814 1.85152 21.45 2.10004L11.45 9.60004C11.1833 9.80004 10.8167 9.80004 10.55 9.60004L0.549998 2.10004C0.218628 1.85152 0.15147 1.38142 0.399998 1.05004Z" fill="#C19476"/>
<path fill-rule="evenodd" clip-rule="evenodd" d="M0.249954 1.5C0.249954 1.08579 0.585741 0.75 0.999954 0.75H11C11.4142 0.75 11.75 1.08579 11.75 1.5C11.75 1.91421 11.4142 2.25 11 2.25H1.74995V9C1.74995 9.41421 1.41417 9.75 0.999954 9.75C0.585741 9.75 0.249954 9.41421 0.249954 9V1.5Z" fill="#C19476"/>
<path fill-rule="evenodd" clip-rule="evenodd" d="M10.25 1.5C10.25 1.08579 10.5857 0.75 11 0.75H21C21.4142 0.75 21.75 1.08579 21.75 1.5V9C21.75 9.41421 21.4142 9.75 21 9.75C20.5857 9.75 20.25 9.41421 20.25 9V2.25H11C10.5857 2.25 10.25 1.91421 10.25 1.5Z" fill="#C19476"/>
</g>
</svg>
