<svg width="30" height="31" viewBox="0 0 30 31" fill="none" xmlns="http://www.w3.org/2000/svg">
<path d="M11.6322 26.3487C11.7536 26.7447 12.1731 26.9673 12.5691 26.8458C12.9651 26.7244 13.1877 26.3049 13.0662 25.9089L11.6322 26.3487ZM9.98099 22.3124L9.51472 22.8998L9.51473 22.8998L9.98099 22.3124ZM4.95263 20.5404L5.56218 20.1034L5.56218 20.1034L4.95263 20.5404ZM6.15826 15.4537L6.85598 15.7288L6.85599 15.7288L6.15826 15.4537ZM4.34557 13.1504L4.93589 13.6131L4.93594 13.613L4.34557 13.1504ZM8.4087 10.8459L8.7484 11.5145C8.95883 11.4076 9.10666 11.2079 9.14743 10.9754L8.4087 10.8459ZM18.0673 22.686L17.9268 21.9492C17.7326 21.9862 17.5609 22.0984 17.449 22.2614L18.0673 22.686ZM19.2423 26.6327C19.5206 26.9395 19.9949 26.9626 20.3017 26.6843C20.6085 26.406 20.6316 25.9317 20.3533 25.6249L19.2423 26.6327ZM14.141 5.25018C14.2327 4.84626 13.9797 4.44442 13.5758 4.35265C13.1718 4.26089 12.77 4.51394 12.6782 4.91786L14.141 5.25018ZM13.4096 11.6014L12.7153 11.885L12.7153 11.885L13.4096 11.6014ZM16.4436 19.8447L15.7106 20.0037L15.7106 20.0037L16.4436 19.8447ZM17.2194 24.0742C17.3954 24.4492 17.842 24.6105 18.217 24.4346C18.592 24.2586 18.7533 23.812 18.5774 23.437L17.2194 24.0742ZM11.262 18.197C10.8478 18.197 10.512 18.5328 10.512 18.947C10.512 19.3612 10.8478 19.697 11.262 19.697V18.197ZM13.376 18.0117L13.9154 18.5328L13.9154 18.5328L13.376 18.0117ZM14.9582 15.9829C14.9582 15.5687 14.6224 15.2329 14.2082 15.2329C13.794 15.2329 13.4582 15.5687 13.4582 15.9829H14.9582ZM13.0662 25.9089C12.5127 24.1038 11.6547 22.6833 10.4472 21.7249L9.51473 22.8998C10.4184 23.617 11.1391 24.7409 11.6322 26.3487L13.0662 25.9089ZM10.4473 21.7249C9.46256 20.9434 8.20955 20.8146 7.31921 20.6976C6.83639 20.6342 6.45547 20.5781 6.14205 20.475C5.84326 20.3767 5.67137 20.2557 5.56218 20.1034L4.34307 20.9773C4.69852 21.4732 5.18958 21.7407 5.67334 21.8999C6.14245 22.0542 6.66367 22.1244 7.12386 22.1848C8.11954 22.3156 8.91607 22.4247 9.51472 22.8998L10.4473 21.7249ZM5.56218 20.1034C5.46012 19.961 5.40035 19.757 5.41958 19.4423C5.43925 19.1206 5.53917 18.7363 5.70173 18.3004C5.86285 17.8684 6.07004 17.4251 6.28157 16.9837C6.48588 16.5574 6.70477 16.1123 6.85598 15.7288L5.46053 15.1786C5.33446 15.4983 5.14785 15.8786 4.92891 16.3354C4.7172 16.7771 4.4834 17.2745 4.29628 17.7763C4.11058 18.2742 3.955 18.817 3.92238 19.3508C3.88933 19.8915 3.9805 20.4716 4.34308 20.9774L5.56218 20.1034ZM6.85599 15.7288C7.09432 15.1242 6.97876 14.5718 6.68755 14.1383C6.42742 13.7511 6.04124 13.4761 5.73928 13.2878C5.58113 13.1893 5.42389 13.1014 5.29215 13.0282C5.15207 12.9504 5.05179 12.8949 4.97373 12.8459C4.87716 12.7852 4.9029 12.7872 4.94932 12.8471C4.97872 12.8851 5.05259 12.9925 5.06751 13.1602C5.0845 13.3511 5.01608 13.5108 4.93589 13.6131L3.75526 12.6878C3.63596 12.84 3.55181 13.0504 3.57341 13.2931C3.59294 13.5126 3.69176 13.6731 3.76342 13.7656C3.89435 13.9347 4.07381 14.052 4.17584 14.1161C4.29638 14.1918 4.43957 14.2705 4.56352 14.3393C4.6958 14.4129 4.82314 14.4843 4.9458 14.5608C5.20544 14.7226 5.36576 14.8606 5.44241 14.9747C5.48798 15.0426 5.49948 15.0798 5.46053 15.1786L6.85599 15.7288ZM4.93594 13.613C4.90209 13.6562 4.9234 13.6193 5.13079 13.4821C5.30559 13.3664 5.55581 13.2153 5.88782 13.027C6.55013 12.6514 7.50186 12.1478 8.7484 11.5145L8.069 10.1772C6.81539 10.8141 5.83985 11.3297 5.14779 11.7223C4.80262 11.918 4.51887 12.0883 4.30294 12.2312C4.11957 12.3526 3.89336 12.5115 3.7552 12.6879L4.93594 13.613ZM9.14743 10.9754C9.47843 9.08774 10.2373 7.7546 11.3677 6.88193C12.5075 6.00205 14.1172 5.51904 16.2806 5.51904V4.01904C13.9063 4.01904 11.9353 4.54884 10.4511 5.69457C8.95762 6.84752 8.04934 8.5528 7.66997 10.7164L9.14743 10.9754ZM16.2806 5.51904C19.442 5.51904 21.5792 6.84676 22.9436 8.5773C24.3289 10.3345 24.9298 12.5271 24.9298 14.2095H26.4298C26.4298 12.2216 25.7342 9.69408 24.1215 7.6486C22.4878 5.57647 19.9253 4.01904 16.2806 4.01904V5.51904ZM24.9298 14.2095C24.9298 17.4914 22.0742 21.1587 17.9268 21.9492L18.2077 23.4227C23.0058 22.5082 26.4298 18.2677 26.4298 14.2095H24.9298ZM17.449 22.2614C16.9991 22.9166 17.2195 23.703 17.5298 24.3203C17.8638 24.9849 18.45 25.7593 19.2423 26.6327L20.3533 25.6249C19.5919 24.7855 19.1129 24.1298 18.87 23.6467C18.6035 23.1164 18.7355 23.0378 18.6855 23.1105L17.449 22.2614ZM12.6782 4.91786C12.0313 7.76516 11.9944 10.1202 12.7153 11.885L14.1039 11.3178C13.5561 9.97674 13.5192 7.98693 14.141 5.25018L12.6782 4.91786ZM12.7153 11.885C13.0337 12.6645 13.6145 13.1864 14.2213 13.5632C14.8159 13.9324 15.4986 14.1988 16.0642 14.4275C16.6691 14.6721 17.1277 14.8697 17.4439 15.108C17.7223 15.3179 17.8174 15.5016 17.8174 15.746H19.3174C19.3174 14.9038 18.8868 14.3172 18.3468 13.9102C17.8446 13.5317 17.1921 13.2656 16.6265 13.0369C16.0216 12.7923 15.4743 12.5756 15.0126 12.2889C14.5631 12.0098 14.2612 11.7029 14.1039 11.3177L12.7153 11.885ZM17.8174 15.746C17.8174 16.4979 17.4229 16.9514 16.856 17.5112C16.5975 17.7663 16.2467 18.0958 16.0071 18.4675C15.7402 18.8816 15.5779 19.3917 15.7106 20.0037L17.1765 19.6857C17.1458 19.5438 17.1672 19.4363 17.2679 19.2801C17.3959 19.0816 17.5964 18.888 17.9098 18.5786C18.4865 18.0092 19.3174 17.1672 19.3174 15.746H17.8174ZM15.7106 20.0037C15.9461 21.0894 16.4582 22.452 17.2194 24.0742L18.5774 23.437C17.835 21.855 17.3771 20.6102 17.1765 19.6857L15.7106 20.0037ZM11.262 19.697C11.3956 19.697 11.7909 19.6685 12.2752 19.519C12.7645 19.368 13.3861 19.0806 13.9154 18.5328L12.8366 17.4905C12.5337 17.8041 12.1611 17.9844 11.8329 18.0857C11.4997 18.1886 11.2541 18.197 11.262 18.197V19.697ZM13.9154 18.5328C14.6014 17.8227 14.9582 16.9611 14.9582 15.9829H13.4582C13.4582 16.5611 13.2602 17.052 12.8366 17.4906L13.9154 18.5328Z" fill="#C19476"/>
</svg>
