<svg width="30" height="31" viewBox="0 0 30 31" fill="none" xmlns="http://www.w3.org/2000/svg">
<path d="M3 14.3542C3 8.33036 7.88334 3.44702 13.9072 3.44702C19.931 3.44702 24.8144 8.33036 24.8144 14.3542C24.8144 20.3781 19.931 25.2614 13.9072 25.2614C7.88334 25.2614 3 20.3781 3 14.3542ZM13.9072 5.21575C8.86018 5.21575 4.76873 9.3072 4.76873 14.3542C4.76873 19.4012 8.86018 23.4927 13.9072 23.4927C18.9542 23.4927 23.0456 19.4012 23.0456 14.3542C23.0456 9.3072 18.9542 5.21575 13.9072 5.21575Z" fill="#C19476"/>
<path d="M20.4875 20.9346C20.8329 20.5892 21.3929 20.5892 21.7382 20.9346L26.741 25.9373C27.0863 26.2827 27.0863 26.8426 26.741 27.188C26.3956 27.5334 25.8357 27.5334 25.4903 27.188L20.4875 22.1853C20.1422 21.8399 20.1422 21.2799 20.4875 20.9346Z" fill="#C19476"/>
</svg>
