<svg width="30" height="31" viewBox="0 0 30 31" fill="none" xmlns="http://www.w3.org/2000/svg">
<path d="M3 14.4072C3 8.38334 7.88334 3.5 13.9072 3.5C19.931 3.5 24.8144 8.38334 24.8144 14.4072C24.8144 20.431 19.931 25.3144 13.9072 25.3144C7.88334 25.3144 3 20.431 3 14.4072ZM13.9072 5.26873C8.86018 5.26873 4.76873 9.36018 4.76873 14.4072C4.76873 19.4542 8.86018 23.5456 13.9072 23.5456C18.9542 23.5456 23.0456 19.4542 23.0456 14.4072C23.0456 9.36018 18.9542 5.26873 13.9072 5.26873Z" fill="white"/>
<path d="M20.4875 20.9875C20.8329 20.6422 21.3929 20.6422 21.7382 20.9875L26.741 25.9903C27.0863 26.3357 27.0863 26.8956 26.741 27.241C26.3956 27.5863 25.8357 27.5863 25.4903 27.241L20.4875 22.2382C20.1422 21.8929 20.1422 21.3329 20.4875 20.9875Z" fill="white"/>
</svg>
