<svg width="24" height="24" viewBox="0 0 24 24" fill="none" xmlns="http://www.w3.org/2000/svg">
<path d="M22.4541 12.4498C22.5058 12.3908 22.5469 12.3207 22.5749 12.2435C22.603 12.1663 22.6174 12.0836 22.6174 12C22.6174 11.9164 22.603 11.8337 22.5749 11.7565C22.5469 11.6793 22.5058 11.6092 22.4541 11.5502L18.9166 7.50692C18.8122 7.38762 18.6707 7.3206 18.523 7.3206C18.3754 7.3206 18.2339 7.38762 18.1295 7.50692C18.0251 7.62622 17.9665 7.78803 17.9665 7.95674C17.9665 8.12545 18.0251 8.28726 18.1295 8.40656L21.2745 12L18.1295 15.5935C18.0251 15.7128 17.9665 15.8746 17.9665 16.0433C17.9665 16.212 18.0251 16.3738 18.1295 16.4931C18.2339 16.6124 18.3754 16.6794 18.523 16.6794C18.6707 16.6794 18.8122 16.6124 18.9166 16.4931L22.4541 12.4498ZM1.38263 12.6353H22.0605V11.3647H1.38263V12.6353Z" fill="#C19476"/>
</svg>
