<svg width="20" height="21" viewBox="0 0 20 21" fill="none" xmlns="http://www.w3.org/2000/svg">
<path d="M19.2233 1.94942C19.6139 2.33994 19.6139 2.97311 19.2233 3.36363L12.1739 10.413L19.2929 17.532C19.6834 17.9225 19.6834 18.5557 19.2929 18.9462L18.4462 19.7929C18.0557 20.1834 17.4225 20.1834 17.032 19.7929L9.91304 12.6739L2.89841 19.6885C2.50788 20.0791 1.87472 20.0791 1.4842 19.6885L0.811454 19.0158C0.420929 18.6253 0.420929 17.9921 0.811453 17.6016L7.82609 10.587L0.707107 3.46798C0.316583 3.07745 0.316583 2.44429 0.707107 2.05376L1.55376 1.20711C1.94429 0.816583 2.57745 0.816583 2.96798 1.20711L10.087 8.32609L17.1364 1.27667C17.5269 0.886148 18.1601 0.886149 18.5506 1.27667L19.2233 1.94942Z" fill="#C19476"/>
</svg>
