<svg width="30" height="31" viewBox="0 0 30 31" fill="none" xmlns="http://www.w3.org/2000/svg">
<rect width="30" height="31" fill="#D2D2D2"/>
<g id="Creams &#38; Serum">
<g id="Vector">
<path fill-rule="evenodd" clip-rule="evenodd" d="M9.6875 23.572C9.6875 23.0543 10.1072 22.6345 10.625 22.6345H19.375C19.8928 22.6345 20.3125 23.0543 20.3125 23.572V27.947C20.3125 28.4648 19.8928 28.8845 19.375 28.8845H10.625C10.1072 28.8845 9.6875 28.4648 9.6875 27.947V23.572ZM11.5625 24.5095V27.0095H18.4375V24.5095H11.5625Z" fill="#C19476"/>
<path fill-rule="evenodd" clip-rule="evenodd" d="M6.5625 2.94702C6.5625 2.42925 6.98223 2.00952 7.5 2.00952H22.5C23.0178 2.00952 23.4375 2.42925 23.4375 2.94702H22.5C23.4375 2.94702 23.4375 2.94693 23.4375 2.94702L23.4375 2.96339L23.4373 3.00831C23.4372 3.0476 23.4369 3.10538 23.4362 3.1806C23.435 3.33103 23.4325 3.55122 23.4276 3.83261C23.4177 4.39532 23.398 5.20317 23.3586 6.18762C23.2799 8.15517 23.1224 10.8346 22.8068 13.6756C22.4862 16.5606 21.8461 19.119 21.2875 20.9544C21.0078 21.8733 20.7476 22.6142 20.5562 23.1278C20.4605 23.3847 20.382 23.5851 20.3267 23.7226C20.299 23.7914 20.2772 23.8446 20.2619 23.8813L20.2441 23.9239L20.2391 23.9358L20.237 23.9405C20.237 23.9407 20.2367 23.9413 19.375 23.572L20.237 23.9405C20.0893 24.2852 19.75 24.5095 19.375 24.5095H10.625C10.25 24.5095 9.91103 24.286 9.7633 23.9413L10.625 23.572C9.7633 23.9413 9.76338 23.9415 9.7633 23.9413L9.76094 23.9358L9.7559 23.9239L9.73806 23.8813C9.72281 23.8446 9.70097 23.7914 9.67333 23.7226C9.61804 23.5851 9.53946 23.3847 9.44375 23.1278C9.25238 22.6142 8.99217 21.8733 8.71249 20.9544C8.15389 19.119 7.5138 16.5606 7.19323 13.6756C6.87757 10.8346 6.72008 8.15517 6.64137 6.18762C6.602 5.20317 6.58228 4.39532 6.57241 3.83261C6.56747 3.55122 6.565 3.33103 6.56375 3.1806C6.56313 3.10538 6.56282 3.0476 6.56266 3.00831L6.56252 2.96339L6.5625 2.94839C6.5625 2.9483 6.5625 2.94702 7.5 2.94702H6.5625ZM8.44865 3.88452C8.45877 4.43047 8.47808 5.19266 8.51488 6.11268C8.59242 8.05137 8.74742 10.6844 9.05677 13.4685C9.3612 16.2084 9.97111 18.6501 10.5063 20.4084C10.7735 21.2864 11.0211 21.9908 11.2008 22.4732C11.222 22.5301 11.2422 22.5839 11.2614 22.6345H18.7386C18.7578 22.5839 18.778 22.5301 18.7992 22.4732C18.9789 21.9908 19.2265 21.2864 19.4937 20.4084C20.0289 18.6501 20.6388 16.2084 20.9432 13.4685C21.2526 10.6844 21.4076 8.05137 21.4851 6.11268C21.5219 5.19266 21.5412 4.43047 21.5513 3.88452H8.44865Z" fill="#C19476"/>
<path fill-rule="evenodd" clip-rule="evenodd" d="M14.7479 9.51611C15.0822 9.47631 15.4121 9.61877 15.6123 9.88934C15.96 10.3591 16.4931 11.1574 16.9951 11.9844C17.489 12.7982 17.9945 13.7076 18.251 14.3816C18.6754 15.4968 18.3315 16.6459 17.6934 17.4602C17.0537 18.2766 16.027 18.8845 14.8588 18.8845C13.5785 18.8845 12.5389 18.0118 12.0084 17.0359C11.4701 16.046 11.3085 14.6729 12.1559 13.5596M14.7479 9.51611C14.4137 9.55591 14.1264 9.77186 13.9953 10.0819L14.7479 9.51611ZM15.0265 12.3686C14.6563 13.1324 14.19 13.983 13.6479 14.6952C13.377 15.051 13.3552 15.5877 13.6556 16.1403C13.9637 16.707 14.4617 17.0095 14.8588 17.0095C15.3679 17.0095 15.8788 16.736 16.2175 16.3037C16.5579 15.8693 16.6333 15.4023 16.4986 15.0485M15.0265 12.3686C15.1474 12.5588 15.2704 12.7566 15.3922 12.9573C15.8815 13.7634 16.3078 14.5472 16.4986 15.0485M13.9953 10.0819C13.6148 10.9816 12.9671 12.4938 12.1559 13.5596L13.9953 10.0819Z" fill="#C19476"/>
<path fill-rule="evenodd" clip-rule="evenodd" d="M7.1875 6.69702C7.1875 6.17925 7.60723 5.75952 8.125 5.75952H21.875C22.3928 5.75952 22.8125 6.17925 22.8125 6.69702C22.8125 7.21479 22.3928 7.63452 21.875 7.63452H8.125C7.60723 7.63452 7.1875 7.21479 7.1875 6.69702Z" fill="#C19476"/>
</g>
</g>
</svg>
