<svg width="30" height="31" viewBox="0 0 30 31" fill="none" xmlns="http://www.w3.org/2000/svg">
<rect width="30" height="31" fill="#D2D2D2"/>
<g id="Ginecology">
<g id="Vector">
<path d="M11.2697 6.41211C10.6543 7.50318 10.5975 9.1361 11.0977 11.1124C11.6242 13.1923 12.1195 14.8867 12.8223 16.0615C13.1659 16.6358 13.5289 17.0318 13.9152 17.2839C14.2856 17.5256 14.7236 17.6659 15.2963 17.6659C16.3404 17.6659 17.1967 17.1144 17.9277 15.9312C18.6684 14.7324 19.1663 13.043 19.4803 11.1817C19.7926 9.3309 19.7526 7.6629 19.1553 6.49911C18.8687 5.94068 18.4563 5.50209 17.8765 5.19422C17.2886 4.88202 16.4626 4.66965 15.2963 4.66965C12.9716 4.66965 11.8287 5.42121 11.2697 6.41211ZM9.41473 5.54229C10.4203 3.7596 12.4062 2.76776 15.2963 2.76776C16.7375 2.76776 17.9473 3.03087 18.9263 3.55074C19.9135 4.07495 20.5992 4.82504 21.0446 5.69302C21.9115 7.38207 21.8715 9.51782 21.542 11.4708C21.2143 13.4133 20.6691 15.3692 19.7451 16.8647C18.8114 18.3759 17.3812 19.5678 15.2963 19.5678C14.3046 19.5678 13.4389 19.3118 12.7012 18.8305C11.9792 18.3594 11.4297 17.7054 10.9911 16.9722C10.1294 15.5319 9.58178 13.581 9.06523 11.5401C8.52247 9.39566 8.4657 7.22481 9.41473 5.54229Z" fill="#C19476"/>
<path d="M12.168 16.081C12.744 16.081 13.2109 16.5067 13.2109 17.0319V27.1753C13.2109 27.7005 12.744 28.1263 12.168 28.1263C11.592 28.1263 11.125 27.7005 11.125 27.1753V17.0319C11.125 16.5067 11.592 16.081 12.168 16.081Z" fill="#C19476"/>
<path d="M18.4258 16.081C19.0018 16.081 19.4688 16.5067 19.4688 17.0319V27.1753C19.4688 27.7005 19.0018 28.1263 18.4258 28.1263C17.8498 28.1263 17.3828 27.7005 17.3828 27.1753V17.0319C17.3828 16.5067 17.8498 16.081 18.4258 16.081Z" fill="#C19476"/>
<path d="M5.20407 5.62587C7.01805 5.51271 8.85288 5.55886 10.4202 6.80605L10.8342 7.71397L5.23064 10.5487C5.81319 10.7758 6.35314 11.0924 6.74723 11.5138C7.40757 12.2199 7.81828 13.2819 7.73004 14.296C7.68457 14.8186 7.50293 15.3625 7.11285 15.8356C6.71688 16.3158 6.14904 16.6705 5.43346 16.8638C3.82404 17.2985 2.39715 16.5136 1.4902 15.4623C0.859458 14.7311 0.392226 13.791 0.161395 12.7675L0 12.8381V10.7634L0.0213283 10.7527C0.119085 9.45774 0.553884 8.29678 1.34626 7.39439C2.26762 6.34511 3.60414 5.72566 5.20407 5.62587ZM2.13438 12.0037C2.2637 12.9072 2.64079 13.7196 3.12978 14.2865C3.74989 15.0054 4.3701 15.1674 4.8409 15.0402C5.16543 14.9526 5.34132 14.8191 5.44549 14.6928C5.55553 14.5593 5.63041 14.3781 5.65064 14.1456C5.69379 13.6497 5.47262 13.0821 5.16 12.7479C4.90023 12.4701 4.26887 12.1713 3.42993 12.0385C2.93698 11.9604 2.48874 11.9582 2.13438 12.0037ZM2.33659 9.70571L7.28476 7.53987C6.73872 7.47098 6.10613 7.47594 5.34644 7.52333C4.28324 7.58964 3.50362 7.98059 2.97462 8.58304C2.70901 8.88552 2.49048 9.26036 2.33659 9.70571Z" fill="#C19476"/>
<path d="M23.0024 7.71397L27.7067 9.74911C27.618 9.20727 27.4719 8.78207 27.2621 8.45836C26.9432 7.96641 26.3995 7.59128 25.2033 7.5234C24.3031 7.47233 23.6427 7.53046 23.0986 7.68521C23.0663 7.69439 23.0343 7.70397 23.0024 7.71397ZM24.9292 10.6526L19.6093 8.05118L20.1482 7.14399C20.8506 6.5468 21.5975 6.1199 22.4774 5.86963C23.3454 5.62272 24.2808 5.5655 25.3329 5.62518C27.0649 5.72347 28.315 6.34482 29.0578 7.49067C29.6428 8.39308 29.8427 9.52307 29.8878 10.705L29.8985 10.7099V12.8024L29.7936 12.757C29.652 13.7101 29.3623 14.6139 28.8955 15.3407C28.5394 15.8952 28.0487 16.3941 27.3896 16.6957C26.7107 17.0065 25.9443 17.0654 25.1486 16.8699C24.3986 16.6857 23.7919 16.3458 23.3603 15.8698C22.9312 15.3964 22.7248 14.8431 22.6731 14.3032C22.5731 13.2579 23.04 12.1816 23.7614 11.4801C24.0948 11.1559 24.4919 10.8764 24.9292 10.6526ZM27.7859 11.9794C26.9366 11.8611 25.925 12.1567 25.2831 12.781C24.9346 13.1198 24.7067 13.6731 24.7512 14.1379C24.7717 14.353 24.8473 14.5248 24.9681 14.6581C25.0865 14.7886 25.2976 14.9368 25.6913 15.0335C26.0392 15.119 26.2741 15.0783 26.4538 14.996C26.6533 14.9047 26.8786 14.7173 27.0955 14.3796C27.4587 13.8141 27.7072 12.9656 27.7859 11.9794Z" fill="#C19476"/>
</g>
</g>
</svg>
