<svg width="70" height="71" viewBox="0 0 70 71" fill="none" xmlns="http://www.w3.org/2000/svg">
<rect width="70" height="71"/>
<g id="call center">
<g id="i-customer">
<path id="Vector" d="M53.3638 57.0166L51.1626 50.4123C50.7853 49.2805 50.1107 48.271 49.2094 47.4894C48.3081 46.7078 47.2132 46.1829 46.0395 45.9695L39.6853 44.8142V44.3216C40.7885 43.68 41.7522 42.8243 42.5197 41.8047H44.4396C45.1957 41.8038 45.9206 41.503 46.4553 40.9683C46.99 40.4336 47.2907 39.7087 47.2916 38.9526V27.5443C47.2916 20.7294 41.7466 15.1844 34.9318 15.1844C28.117 15.1844 22.5728 20.7294 22.5728 27.5443V34.1991C22.5741 35.0734 22.8761 35.9206 23.428 36.5986C23.98 37.2767 24.7484 37.7442 25.6042 37.9227C25.867 39.2535 26.4111 40.5128 27.1999 41.6164C27.9888 42.7199 29.0042 43.6422 30.1783 44.3216V44.8142L23.8241 45.9704C22.6504 46.1835 21.5556 46.7083 20.6543 47.4898C19.753 48.2712 19.0784 49.2806 18.701 50.4123L18.3212 51.5541L15.0826 48.3164C14.9044 48.1378 14.8043 47.8958 14.8043 47.6435C14.8043 47.3913 14.9044 47.1493 15.0826 46.9707L18.8382 43.2168L11.7902 36.1687L7.54615 40.4127C6.92626 41.0292 6.4348 41.7625 6.10019 42.5702C5.76558 43.3779 5.59447 44.2439 5.59676 45.1182C5.59676 46.8958 6.28894 48.5664 7.5453 49.8228L20.3952 62.6727C21.0116 63.2925 21.7448 63.7839 22.5524 64.1185C23.3599 64.4531 24.2257 64.6242 25.0998 64.6221C25.9674 64.6257 26.8272 64.4578 27.6296 64.1281C28.4321 63.7983 29.1615 63.3131 29.7758 62.7005L34.4064 58.4573L32.9622 57.0166H53.3638ZM45.3894 38.9526C45.3894 39.2047 45.2894 39.4464 45.1113 39.6248C44.9332 39.8032 44.6916 39.9037 44.4396 39.9041H43.6396C43.9158 39.2751 44.1246 38.6124 44.2594 37.9227C44.6582 37.8352 45.0402 37.6833 45.3903 37.4731L45.3894 38.9526ZM44.4396 35.8369V32.5613C44.7278 32.7269 44.9673 32.9654 45.1342 33.2529C45.3011 33.5404 45.3894 33.8667 45.3903 34.1991C45.3892 34.5315 45.3007 34.8577 45.1336 35.145C44.9666 35.4323 44.727 35.6707 44.4387 35.8361L44.4396 35.8369ZM25.4249 35.8369C25.1365 35.6714 24.8968 35.433 24.7298 35.1455C24.5627 34.858 24.4743 34.5316 24.4733 34.1991C24.4744 33.8668 24.5629 33.5406 24.73 33.2532C24.897 32.9659 25.1366 32.7276 25.4249 32.5621V35.8361V35.8369ZM25.4249 29.4457V30.5319C25.0912 30.6189 24.7711 30.7512 24.4733 30.9252V27.5443C24.4733 21.7778 29.1662 17.0858 34.9318 17.0858C40.6983 17.0858 45.3903 21.7778 45.3903 27.5443V30.9252C45.0928 30.7505 44.7726 30.6179 44.4387 30.5311V29.4448H43.4889C40.6772 29.4448 38.034 28.3501 36.045 26.3629L34.9318 25.2488L33.8186 26.362C32.8434 27.3425 31.6834 28.1199 30.4059 28.6492C29.1283 29.1785 27.7584 29.4492 26.3756 29.4457H25.4249ZM27.3263 36.1005V31.3108C30.1766 31.1003 32.8651 29.9058 34.9318 27.9316C36.9984 29.9064 39.6875 31.101 42.5382 31.3108V36.1005C42.5382 37.4865 42.1592 38.7833 41.5092 39.9033H34.9326V41.8047H39.9463C38.563 43.0295 36.7794 43.7058 34.9318 43.706C30.7383 43.706 27.3263 40.294 27.3263 36.1005ZM37.7847 45.1696V45.2142L34.9318 48.0663L32.0797 45.2142V45.1696C33.9361 45.7544 35.9283 45.7544 37.7847 45.1696ZM20.5039 51.0135C20.7734 50.2049 21.2552 49.4837 21.8991 48.9252C22.5429 48.3667 23.325 47.9915 24.1635 47.8389L30.809 46.6314L34.9318 50.755L39.0546 46.6322L45.6985 47.8397C46.537 47.9922 47.3192 48.3673 47.963 48.9258C48.6069 49.4843 49.0887 50.2057 49.3581 51.0143L50.7264 55.1152H31.0617L27.3583 51.4118L23.2439 55.1337C23.0631 55.3073 22.8222 55.4042 22.5715 55.4042C22.3209 55.4042 22.08 55.3073 21.8992 55.1337L19.8235 53.0572L20.5039 51.0135ZM11.7885 38.8566L16.1487 43.2168L15.1163 44.2492L10.7561 39.889L11.7885 38.8566ZM28.4597 61.3296C28.019 61.7718 27.4952 62.1224 26.9184 62.3611C26.3416 62.5999 25.7233 62.7221 25.099 62.7207C24.4743 62.7222 23.8555 62.5999 23.2784 62.3609C22.7013 62.1218 22.1773 61.7707 21.7366 61.3279L8.8884 48.4797C8.44573 48.0394 8.09479 47.5156 7.85586 46.9388C7.61694 46.3619 7.49478 45.7434 7.49646 45.119C7.49476 44.4945 7.61691 43.8759 7.85583 43.2989C8.09475 42.7219 8.44571 42.198 8.8884 41.7575L9.41048 41.2346L13.7707 45.5948L13.737 45.6285C13.2034 46.164 12.9037 46.8892 12.9037 47.6452C12.9037 48.4012 13.2034 49.1264 13.737 49.662L20.5544 56.4802C21.0933 57.0183 21.8091 57.3155 22.572 57.3155C23.334 57.3155 24.0498 57.0191 24.5542 56.513L24.6249 56.4499L29.0053 60.8294L28.4597 61.3296ZM30.4082 59.5419L26.0379 55.1716L27.2943 54.0365L31.6562 58.3992L30.4082 59.5419ZM61.552 5.67752H48.2423C47.4862 5.67841 46.7613 5.97918 46.2266 6.51386C45.6919 7.04853 45.3911 7.77345 45.3903 8.5296V16.1351C45.3911 16.8913 45.6919 17.6162 46.2266 18.1509C46.7613 18.6855 47.4862 18.9863 48.2423 18.9872H50.7812L49.7985 24.7217L58.9728 18.9872H61.552C62.3082 18.9863 63.0331 18.6855 63.5678 18.1509C64.1024 17.6162 64.4032 16.8913 64.4041 16.1351V8.5296C64.4032 7.77345 64.1024 7.04853 63.5678 6.51386C63.0331 5.97918 62.3082 5.67841 61.552 5.67752ZM62.5036 16.136C62.5031 16.388 62.4027 16.6296 62.2243 16.8077C62.0459 16.9858 61.8041 17.0858 61.552 17.0858H58.4271L52.3895 20.8591L53.0362 17.0867H48.2423C47.99 17.0867 47.7479 16.9864 47.5695 16.808C47.391 16.6295 47.2908 16.3875 47.2908 16.1351V8.5296C47.291 8.27738 47.3914 8.03557 47.5698 7.8573C47.7482 7.67904 47.9901 7.5789 48.2423 7.5789H61.552C61.8044 7.5789 62.0464 7.67916 62.2249 7.8576C62.4033 8.03605 62.5036 8.27808 62.5036 8.53044V16.1351V16.136Z" fill="white"/>
<path id="Vector_2" d="M60.6013 9.48026H49.193V11.3816H60.6013V9.48026ZM56.7986 13.283H49.193V15.1844H56.7986V13.283ZM60.6013 13.283H58.6999V15.1844H60.6013V13.283ZM34.9326 8.52957C22.5096 8.52957 11.8095 17.122 9.02818 29.108L7.22616 26.1043L5.59592 27.0828L8.93723 32.6514L14.5058 29.3092L13.5273 27.679L10.9506 29.225C13.6452 18.2605 23.5058 10.431 34.9326 10.431C37.4294 10.431 39.8941 10.8015 42.2561 11.5341L42.8194 9.71773C40.2648 8.92781 37.6057 8.52754 34.9318 8.53041L34.9326 8.52957ZM63.9418 26.7283L58.3741 23.3861L55.0327 28.9556L56.6638 29.934L58.3277 27.1611C59.2063 29.7328 59.6531 32.4322 59.6498 35.1498C59.6455 40.8152 57.6997 46.308 54.1368 50.7128L55.6129 51.9111C59.4511 47.1675 61.5473 41.2517 61.552 35.1498C61.552 32.2413 61.0838 29.4019 60.1702 26.6828L62.9642 28.3585L63.9418 26.7283Z" fill="white"/>
</g>
</g>
</svg>
