<svg width="30" height="31" viewBox="0 0 30 31" fill="none" xmlns="http://www.w3.org/2000/svg">
<rect width="30" height="31" fill="#D2D2D2"/>
<g id="Lipolitics">
<g id="Vector">
<path fill-rule="evenodd" clip-rule="evenodd" d="M9.41591 3.30394C9.72124 3.32715 9.99029 3.51329 10.1197 3.79082C12.0339 7.89697 17.9495 7.89941 19.883 3.78823C20.0131 3.5116 20.2821 3.32649 20.587 3.30383C20.8919 3.28117 21.1853 3.42447 21.3549 3.67883L24.7516 8.77389C26.284 11.1511 25.8826 14.5638 23.3635 16.1625C22.8761 16.4716 22.2646 16.6368 21.7154 16.7301C21.1501 16.8262 20.5684 16.8593 20.0849 16.8593H9.91652C9.43129 16.8593 8.84955 16.8246 8.28491 16.7278C7.73616 16.6338 7.12756 16.469 6.64235 16.1653L6.63882 16.1631C4.11171 14.5637 3.71849 11.1497 5.24997 8.77394L5.25705 8.76296L8.64662 3.67883C8.81648 3.42404 9.11058 3.28072 9.41591 3.30394ZM6.67102 9.69739C5.56331 11.4216 5.9497 13.7197 7.54326 14.7299C7.75309 14.8607 8.10703 14.9779 8.57106 15.0574C9.02044 15.1344 9.50356 15.1646 9.91652 15.1646H20.0849C20.4996 15.1646 20.9828 15.1356 21.4315 15.0594C21.8963 14.9804 22.2482 14.863 22.4557 14.7315C24.0473 13.7212 24.4376 11.4208 23.3304 9.69738L20.6885 5.73443C17.9074 9.50409 12.0831 9.51378 9.31066 5.73798L6.67102 9.69739Z" fill="#C19476"/>
<path fill-rule="evenodd" clip-rule="evenodd" d="M8.00559 15.1926C8.45809 15.0732 8.9217 15.3432 9.04111 15.7957L10.466 21.1956C11.0299 23.3864 10.4288 25.7234 8.82338 27.3419C8.49381 27.6742 7.95729 27.6764 7.62504 27.3468C7.29278 27.0172 7.29061 26.4807 7.62019 26.1484C8.79354 24.9655 9.24334 23.2477 8.82536 21.6204L7.40247 16.2281C7.28306 15.7756 7.55309 15.312 8.00559 15.1926Z" fill="#C19476"/>
<path fill-rule="evenodd" clip-rule="evenodd" d="M21.9952 15.1924C22.4478 15.3115 22.7182 15.7749 22.5991 16.2275L21.1762 21.637C20.7584 23.2629 21.2068 24.9644 22.3812 26.1484C22.7108 26.4807 22.7086 27.0172 22.3764 27.3468C22.0441 27.6764 21.5076 27.6742 21.178 27.3419C19.5736 25.7245 18.9712 23.4048 19.5355 21.2125L19.5366 21.2082L20.9601 15.7963C21.0792 15.3438 21.5426 15.0734 21.9952 15.1924Z" fill="#C19476"/>
<path fill-rule="evenodd" clip-rule="evenodd" d="M15.0007 23.6383C15.4687 23.6383 15.8481 24.0176 15.8481 24.4856V25.6154C15.8481 26.0834 15.4687 26.4628 15.0007 26.4628C14.5327 26.4628 14.1533 26.0834 14.1533 25.6154V24.4856C14.1533 24.0176 14.5327 23.6383 15.0007 23.6383Z" fill="#C19476"/>
</g>
</g>
</svg>
