<svg width="30" height="31" viewBox="0 0 30 31" fill="none" xmlns="http://www.w3.org/2000/svg">
<rect width="30" height="31" fill="#D2D2D2"/>
<g id="Mesotherapy">
<path id="Vector" d="M11.6322 26.3468C11.7536 26.7428 12.1731 26.9654 12.5691 26.8439C12.9651 26.7225 13.1877 26.303 13.0663 25.907L11.6322 26.3468ZM9.98105 22.3105L9.51478 22.8979L9.51479 22.8979L9.98105 22.3105ZM4.95269 20.5385L5.56225 20.1015L5.56224 20.1015L4.95269 20.5385ZM6.15832 15.4518L6.85604 15.7269L6.85605 15.7269L6.15832 15.4518ZM4.34563 13.1486L4.93595 13.6112L4.936 13.6111L4.34563 13.1486ZM8.40876 10.844L8.74846 11.5127C8.95889 11.4057 9.10672 11.206 9.14749 10.9735L8.40876 10.844ZM18.0673 22.6841L17.9269 21.9473C17.7327 21.9844 17.561 22.0965 17.4491 22.2595L18.0673 22.6841ZM19.2423 26.6308C19.5206 26.9376 19.9949 26.9607 20.3017 26.6824C20.6085 26.4041 20.6316 25.9298 20.3533 25.623L19.2423 26.6308ZM14.141 5.24828C14.2328 4.84436 13.9797 4.44253 13.5758 4.35076C13.1719 4.25899 12.7701 4.51204 12.6783 4.91596L14.141 5.24828ZM13.4097 11.5995L12.7153 11.8831L12.7154 11.8831L13.4097 11.5995ZM16.4436 19.8428L15.7107 20.0018L15.7107 20.0018L16.4436 19.8428ZM17.2195 24.0723C17.3955 24.4473 17.8421 24.6086 18.2171 24.4327C18.592 24.2567 18.7534 23.8101 18.5774 23.4351L17.2195 24.0723ZM11.262 18.1951C10.8478 18.1951 10.512 18.5309 10.512 18.9451C10.512 19.3593 10.8478 19.6951 11.262 19.6951V18.1951ZM13.3761 18.0098L13.9155 18.5309L13.9155 18.5309L13.3761 18.0098ZM14.9582 15.981C14.9582 15.5668 14.6225 15.231 14.2082 15.231C13.794 15.231 13.4582 15.5668 13.4582 15.981H14.9582ZM13.0663 25.907C12.5128 24.1019 11.6548 22.6814 10.4473 21.723L9.51479 22.8979C10.4184 23.6152 11.1392 24.739 11.6322 26.3468L13.0663 25.907ZM10.4473 21.7231C9.46262 20.9415 8.20961 20.8127 7.31927 20.6957C6.83645 20.6323 6.45553 20.5762 6.14211 20.4731C5.84332 20.3748 5.67143 20.2538 5.56225 20.1015L4.34313 20.9755C4.69859 21.4713 5.18964 21.7388 5.6734 21.898C6.14252 22.0523 6.66373 22.1225 7.12392 22.1829C8.11961 22.3137 8.91613 22.4228 9.51478 22.8979L10.4473 21.7231ZM5.56224 20.1015C5.46018 19.9591 5.40041 19.7551 5.41965 19.4404C5.43931 19.1187 5.53923 18.7344 5.70179 18.2985C5.86291 17.8665 6.0701 17.4232 6.28163 16.9818C6.48594 16.5556 6.70483 16.1104 6.85604 15.7269L5.46059 15.1767C5.33452 15.4964 5.14791 15.8767 4.92897 16.3335C4.71726 16.7752 4.48346 17.2726 4.29634 17.7744C4.11064 18.2724 3.95506 18.8151 3.92244 19.3489C3.88939 19.8896 3.98056 20.4697 4.34314 20.9755L5.56224 20.1015ZM6.85605 15.7269C7.09438 15.1224 6.97882 14.5699 6.68761 14.1364C6.42748 13.7492 6.0413 13.4742 5.73934 13.2859C5.58119 13.1874 5.42396 13.0995 5.29221 13.0263C5.15213 12.9485 5.05185 12.893 4.97379 12.844C4.87722 12.7833 4.90296 12.7853 4.94938 12.8452C4.97878 12.8832 5.05265 12.9907 5.06757 13.1583C5.08456 13.3492 5.01614 13.5089 4.93595 13.6112L3.75532 12.6859C3.63602 12.8382 3.55187 13.0485 3.57347 13.2912C3.593 13.5107 3.69182 13.6712 3.76348 13.7637C3.89441 13.9328 4.07387 14.0501 4.1759 14.1142C4.29644 14.1899 4.43963 14.2686 4.56358 14.3375C4.69586 14.411 4.8232 14.4824 4.94586 14.5589C5.2055 14.7207 5.36582 14.8588 5.44247 14.9729C5.48804 15.0407 5.49954 15.0779 5.46059 15.1767L6.85605 15.7269ZM4.936 13.6111C4.90215 13.6543 4.92346 13.6174 5.13085 13.4802C5.30565 13.3645 5.55587 13.2134 5.88788 13.0251C6.55019 12.6495 7.50192 12.1459 8.74846 11.5127L8.06906 10.1753C6.81545 10.8122 5.83991 11.3278 5.14785 11.7204C4.80268 11.9161 4.51893 12.0864 4.303 12.2293C4.11964 12.3507 3.89342 12.5097 3.75527 12.686L4.936 13.6111ZM9.14749 10.9735C9.47849 9.08585 10.2374 7.7527 11.3678 6.88004C12.5076 6.00016 14.1173 5.51715 16.2806 5.51715V4.01715C13.9064 4.01715 11.9354 4.54695 10.4512 5.69268C8.95768 6.84563 8.0494 8.55091 7.67003 10.7145L9.14749 10.9735ZM16.2806 5.51715C19.4421 5.51715 21.5792 6.84487 22.9436 8.57541C24.329 10.3326 24.9299 12.5253 24.9299 14.2076H26.4299C26.4299 12.2197 25.7342 9.69219 24.1216 7.64671C22.4879 5.57458 19.9254 4.01715 16.2806 4.01715V5.51715ZM24.9299 14.2076C24.9299 17.4895 22.0742 21.1568 17.9269 21.9473L18.2077 23.4208C23.0059 22.5063 26.4299 18.2658 26.4299 14.2076H24.9299ZM17.4491 22.2595C16.9991 22.9147 17.2196 23.7011 17.5299 24.3184C17.8639 24.983 18.4501 25.7574 19.2423 26.6308L20.3533 25.623C19.5919 24.7836 19.1129 24.1279 18.8701 23.6448C18.6035 23.1145 18.7355 23.0359 18.6856 23.1086L17.4491 22.2595ZM12.6783 4.91596C12.0314 7.76327 11.9945 10.1183 12.7153 11.8831L14.104 11.3159C13.5562 9.97485 13.5192 7.98504 14.141 5.24828L12.6783 4.91596ZM12.7154 11.8831C13.0338 12.6626 13.6145 13.1845 14.2214 13.5613C14.816 13.9305 15.4986 14.1969 16.0642 14.4256C16.6692 14.6703 17.1278 14.8678 17.444 15.1061C17.7224 15.316 17.8175 15.4997 17.8175 15.7441H19.3175C19.3175 14.9019 18.8868 14.3154 18.3468 13.9083C17.8446 13.5298 17.1921 13.2637 16.6266 13.035C16.0217 12.7904 15.4743 12.5737 15.0127 12.287C14.5632 12.0079 14.2613 11.701 14.1039 11.3159L12.7154 11.8831ZM17.8175 15.7441C17.8175 16.496 17.423 16.9495 16.856 17.5093C16.5976 17.7645 16.2467 18.0939 16.0071 18.4656C15.7402 18.8797 15.5779 19.3898 15.7107 20.0018L17.1766 19.6838C17.1458 19.542 17.1673 19.4344 17.2679 19.2782C17.3959 19.0797 17.5965 18.8861 17.9099 18.5767C18.4866 18.0073 19.3175 17.1653 19.3175 15.7441H17.8175ZM15.7107 20.0018C15.9462 21.0875 16.4582 22.4501 17.2195 24.0723L18.5774 23.4351C17.835 21.8531 17.3771 20.6083 17.1766 19.6838L15.7107 20.0018ZM11.262 19.6951C11.3957 19.6951 11.791 19.6666 12.2753 19.5171C12.7646 19.3661 13.3862 19.0787 13.9155 18.5309L12.8367 17.4887C12.5337 17.8022 12.1611 17.9825 11.8329 18.0838C11.4997 18.1867 11.2541 18.1951 11.262 18.1951V19.6951ZM13.9155 18.5309C14.6015 17.8208 14.9582 16.9592 14.9582 15.981H13.4582C13.4582 16.5592 13.2603 17.0501 12.8367 17.4887L13.9155 18.5309Z" fill="#C19476"/>
</g>
</svg>
