<svg width="30" height="31" viewBox="0 0 30 31" fill="none" xmlns="http://www.w3.org/2000/svg">
<rect width="30" height="31"/>
<g id="Placental Extract">
<g id="Vector">
<path fill-rule="evenodd" clip-rule="evenodd" d="M17.6005 5.44542C17.9666 5.81154 17.9666 6.40513 17.6005 6.77125L6.43834 17.9334C4.6885 19.6833 4.70315 22.6001 6.55197 24.4489C8.40083 26.2978 11.3177 26.3124 13.0674 24.5626L24.2296 13.4004C24.5957 13.0343 25.1893 13.0343 25.5554 13.4004C25.9216 13.7665 25.9216 14.3601 25.5554 14.7262L14.3933 25.8884C11.8753 28.4064 7.77073 28.3193 5.22615 25.7748C2.68159 23.2302 2.59448 19.1257 5.11251 16.6076L16.2747 5.44543C16.6408 5.07931 17.2344 5.07931 17.6005 5.44542Z" fill="#C19476"/>
<path fill-rule="evenodd" clip-rule="evenodd" d="M22.7362 17.1322C22.7498 17.6498 22.3413 18.0804 21.8237 18.094L5.48366 18.5242C4.96607 18.5378 4.53544 18.1292 4.52182 17.6116C4.50819 17.0941 4.91673 16.6634 5.43432 16.6498L21.7743 16.2197C22.2919 16.2061 22.7226 16.6146 22.7362 17.1322Z" fill="#C19476"/>
<path d="M18.3706 13.5139C18.8588 13.0257 18.8588 12.2343 18.3706 11.7462C17.8824 11.258 17.091 11.258 16.6028 11.7462C16.1147 12.2343 16.1147 13.0257 16.6028 13.5139C17.091 14.002 17.8824 14.002 18.3706 13.5139Z" fill="#C19476"/>
<path d="M14.8348 15.2818C15.323 14.7937 15.323 14.0022 14.8348 13.514C14.3467 13.0259 13.5552 13.0259 13.0671 13.514C12.5789 14.0022 12.5789 14.7937 13.0671 15.2818C13.5552 15.77 14.3467 15.77 14.8348 15.2818Z" fill="#C19476"/>
<path fill-rule="evenodd" clip-rule="evenodd" d="M14.0649 3.23572C14.431 2.86961 15.0246 2.86961 15.3907 3.23573L27.765 15.6101C28.1311 15.9762 28.1311 16.5698 27.765 16.9359C27.3989 17.3021 26.8053 17.3021 26.4392 16.9359L14.0649 4.56155C13.6988 4.19543 13.6988 3.60184 14.0649 3.23572Z" fill="#C19476"/>
</g>
</g>
</svg>
